<?xml version="1.0" encoding="UTF-8" standalone="no"?>
<!DOCTYPE svg PUBLIC "-//W3C//DTD SVG 1.1//EN" "http://www.w3.org/Graphics/SVG/1.1/DTD/svg11.dtd">
<svg width="180" height="180" viewBox="0 0 1071 1059" version="1.1" xmlns="http://www.w3.org/2000/svg" xmlns:xlink="http://www.w3.org/1999/xlink" xml:space="preserve" xmlns:serif="http://www.serif.com/" style="fill-rule:evenodd;clip-rule:evenodd;stroke-linecap:round;stroke-linejoin:round;stroke-miterlimit:1.5;">
    <g transform="matrix(128.897,0,0,128.897,402.731,549.321)">
    </g>
  <text x="309.646px" y="549.321px" style="font-family:'ArialMT', 'Arial', sans-serif;font-size:128.897px;fill:#8dcc33;">D</text>
  <g transform="matrix(75,0,0,75,535.323,339.359)">
    </g>
  <text x="493.611px" y="339.359px" style="font-family:'ArialMT', 'Arial', sans-serif;font-size:75px;fill:#f60;">2</text>
  <g transform="matrix(75,0,0,75,242.168,764.117)">
    </g>
  <text x="200.457px" y="764.117px" style="font-family:'ArialMT', 'Arial', sans-serif;font-size:75px;fill:#90c;">5</text>
  <g transform="matrix(75,0,0,75,965.677,836.83)">
    </g>
  <text x="923.966px" y="836.83px" style="font-family:'ArialMT', 'Arial', sans-serif;font-size:75px;fill:#0fc;">7</text>
  <g transform="matrix(75,0,0,75,860.883,393.045)">
    </g>
  <text x="819.172px" y="393.045px" style="font-family:'ArialMT', 'Arial', sans-serif;font-size:75px;fill:#ff7bac;">4</text>
  <g transform="matrix(75,0,0,75,712.749,446.951)">
    </g>
  <text x="629.326px" y="446.951px" style="font-family:'ArialMT', 'Arial', sans-serif;font-size:75px;fill:#f33;">16</text>
  <g transform="matrix(128.897,0,0,128.897,1075.41,1057)">
    </g>
  <text x="982.323px" y="1057px" style="font-family:'ArialMT', 'Arial', sans-serif;font-size:128.897px;fill:#8dcc33;">C</text>
  <g transform="matrix(128.897,0,0,128.897,790.255,92.2672)">
    </g>
  <text x="704.281px" y="92.267px" style="font-family:'ArialMT', 'Arial', sans-serif;font-size:128.897px;fill:#8dcc33;">A</text>
  <g transform="matrix(128.897,0,0,128.897,76.5327,1056.71)">
    </g>
  <text x="-9.441px" y="1056.71px" style="font-family:'ArialMT', 'Arial', sans-serif;font-size:128.897px;fill:#8dcc33;">B</text>
  <g transform="matrix(128.897,0,0,128.897,980.198,692.219)">
    </g>
  <text x="894.225px" y="692.219px" style="font-family:'ArialMT', 'Arial', sans-serif;font-size:128.897px;fill:#8dcc33;">E</text>
  <path d="M434.709,527.268l-339.199,475.529" style="fill:none;stroke:#90c;stroke-width:12.5px;"/>
  <path d="M723.02,123.08l-288.311,404.188" style="fill:none;stroke:#f60;stroke-width:12.5px;"/>
  <path d="M437.699,527.825l424.139,119.843" style="fill:none;stroke:#0dcaf2;stroke-width:12.5px;"/>
  <path d="M864.989,646.086l97.282,358.383" style="fill:none;stroke:#0fc;stroke-width:12.5px;"/>
  <path d="M723.02,123.08l141.969,523.006" style="fill:none;stroke:#ff7bac;stroke-width:12.5px;"/>
  <path d="M102.466,1004.39l853.341,0" style="fill:none;stroke:#0dcaf2;stroke-width:12.5px;"/>
  <path d="M695.373,171.276l2.892,-3.941c4.767,3.499 10.526,5.386 16.439,5.386c5.003,-0 9.913,-1.351 14.211,-3.91l2.501,4.2c-5.055,3.01 -10.829,4.598 -16.712,4.598c-6.954,0 -13.726,-2.219 -19.331,-6.333Z" style="fill:#f33;"/>
</svg>
