<?xml version="1.0" encoding="UTF-8" standalone="no"?>
<!DOCTYPE svg PUBLIC "-//W3C//DTD SVG 1.1//EN" "http://www.w3.org/Graphics/SVG/1.1/DTD/svg11.dtd">
<svg width="196" height="168" viewBox="0 0 1213 910" version="1.1" xmlns="http://www.w3.org/2000/svg" xmlns:xlink="http://www.w3.org/1999/xlink" xml:space="preserve" xmlns:serif="http://www.serif.com/" style="fill-rule:evenodd;clip-rule:evenodd;stroke-linecap:round;stroke-linejoin:round;stroke-miterlimit:1.5;">
    <g transform="matrix(100,0,0,100,1216.01,118.847)">
    </g>
  <text x="1143.79px" y="118.847px" style="font-family:'ArialMT', 'Arial', sans-serif;font-size:100px;fill:#8dcc33;">C</text>
  <g transform="matrix(100,0,0,100,59.375,129.967)">
    </g>
  <text x="-7.324px" y="129.967px" style="font-family:'ArialMT', 'Arial', sans-serif;font-size:100px;fill:#8dcc33;">B</text>
  <g transform="matrix(100,0,0,100,985.868,814.605)">
    </g>
  <text x="913.652px" y="814.605px" style="font-family:'ArialMT', 'Arial', sans-serif;font-size:100px;fill:#8dcc33;">D</text>
  <g transform="matrix(100,0,0,100,310.484,830.516)">
    </g>
  <text x="243.785px" y="830.516px" style="font-family:'ArialMT', 'Arial', sans-serif;font-size:100px;fill:#8dcc33;">A</text>
  <g transform="matrix(100,0,0,100,640.566,81.4284)">
    </g>
  <text x="562.782px" y="81.428px" style="font-family:'ArialMT', 'Arial', sans-serif;font-size:100px;fill:#8dcc33;">Q</text>
  <g transform="matrix(100,0,0,100,634.563,857.544)">
    </g>
  <text x="567.864px" y="857.544px" style="font-family:'ArialMT', 'Arial', sans-serif;font-size:100px;fill:#8dcc33;">P</text>
  <g transform="matrix(66.6667,0,0,66.6667,665.057,440.103)">
    </g>
  <text x="613.201px" y="440.103px" style="font-family:'ArialMT', 'Arial', sans-serif;font-size:66.667px;fill:#8dcc33;">O</text>
  <g transform="matrix(66.6667,0,0,66.6667,367.511,84.0973)">
    </g>
  <text x="319.367px" y="84.097px" style="font-family:'ArialMT', 'Arial', sans-serif;font-size:66.667px;fill:#8dcc33;">N</text>
  <g transform="matrix(66.6667,0,0,66.6667,857.039,752.872)">
    </g>
  <text x="801.505px" y="752.872px" style="font-family:'ArialMT', 'Arial', sans-serif;font-size:66.667px;fill:#8dcc33;">M</text>
  <path d="M598.326,467.049l0.228,-6.626c6.718,0.256 13.375,-1.298 19.278,-4.5c0.485,-0.263 0.964,-0.537 1.437,-0.821l3.417,5.69c-0.556,0.334 -1.12,0.656 -1.69,0.965c-6.942,3.765 -14.77,5.593 -22.67,5.292Z" style="fill:#ff7bac;"/>
  <path d="M598.648,378.576l0.18,6.613c-5.978,0.183 -11.831,1.782 -17.076,4.666l-3.185,-5.792c6.168,-3.392 13.051,-5.272 20.081,-5.487Z" style="fill:#ff7bac;"/>
  <path d="M547.161,104.35l-0,46.292" style="fill:none;stroke:#96f;stroke-width:12.5px;"/>
  <path d="M547.161,150.642l45.471,0" style="fill:none;stroke:#96f;stroke-width:12.5px;"/>
  <path d="M896.041,766.494l235.526,-666.387" style="fill:none;stroke:#0dcaf2;stroke-width:12.5px;"/>
  <path d="M69.394,99.949l236.096,666.545" style="fill:none;stroke:#0dcaf2;stroke-width:12.5px;"/>
  <path d="M1131.91,98.462l-1062.99,0" style="fill:none;stroke:#0dcaf2;stroke-width:12.5px;"/>
  <path d="M606.475,496.146c3.295,-8.246 3.964,-9.472 8.455,-19.867c0.152,-0.35 1.022,-2.364 3.431,-3.322c0.743,-0.296 1.557,-0.456 2.356,-0.447c2.629,0.031 4.188,1.642 4.458,1.921c0.262,0.27 1.77,1.829 1.74,4.376c-0.024,2.026 -0.417,1.955 -6.129,15.339c-2.406,5.638 -4.168,10.566 -4.713,11.461c-1.5,2.463 -3.935,2.854 -4.349,2.92c-0.414,0.066 -2.848,0.456 -5.043,-1.415c-1.715,-1.462 -2.044,-3.347 -2.102,-3.681c-0.071,-0.405 -0.13,-2.544 -0.094,-2.721c0.164,-0.805 0.177,-1.658 0.493,-2.416c0.393,-0.942 0.949,-1.64 1.497,-2.148Z" style="fill:#fc0;"/>
  <path d="M606.836,537.653l-0.115,0.148c2.338,-3.606 7.083,-15.831 23.776,-42.129c0.206,-0.323 1.383,-2.178 3.923,-2.742c0.781,-0.173 1.61,-0.202 2.398,-0.065c0.382,0.067 2.59,0.451 4.094,2.608c0.215,0.309 1.456,2.089 1.019,4.597c-0.33,1.901 -0.687,1.771 -6.184,10.825c-13.986,23.034 -16.767,32.26 -19.82,35.324c-0.321,0.322 -2.288,2.297 -5.36,1.903c-0.793,-0.102 -1.583,-0.356 -2.278,-0.752c-0.337,-0.192 -2.281,-1.3 -2.966,-3.841c-0.427,-1.582 -0.214,-2.212 -0.153,-2.394c0.771,-2.279 1.593,-1.866 2.363,-4.145c-0.218,0.182 -0.219,0.186 -0.421,0.367l-0.101,0.101l-0.11,0.119l-0.063,0.073l-0.002,0.003Z" style="fill:#fc0;"/>
  <path d="M616.908,588.433c-0.442,0.692 -0.762,1.483 -1.33,2.077c-0.26,0.272 -1.76,1.84 -4.306,1.908c-1.254,0.033 -1.269,0.037 -2.441,-0.414c-0.357,-0.137 -2.403,-0.923 -3.457,-3.302c-0.324,-0.731 -0.516,-1.538 -0.538,-2.337c-0.046,-1.724 0.11,-1.713 0.758,-3.31c6.903,-17.008 27.816,-44.501 39.005,-61.107c0.214,-0.317 1.438,-2.134 3.98,-2.633c0.784,-0.155 1.614,-0.164 2.398,-0.008c0.381,0.076 2.579,0.513 4.03,2.706c1.405,2.123 0.982,4.251 0.908,4.621c-0.335,1.685 -0.497,1.633 -1.459,3.056c-10.78,15.945 -31.512,43.332 -37.548,58.743Z" style="fill:#fc0;"/>
  <path d="M606.502,645.516c-0.338,-0.179 -2.279,-1.206 -3.043,-3.688c-0.235,-0.764 -0.33,-1.588 -0.257,-2.384c0.162,-1.764 0.351,-1.722 1.182,-3.287c10.004,-18.856 11.245,-18.486 56.304,-83.6c0.218,-0.314 1.467,-2.12 4.022,-2.585c0.786,-0.143 1.616,-0.14 2.398,0.027c2.571,0.549 3.781,2.435 3.991,2.762c1.375,2.143 0.922,4.265 0.843,4.633c-0.171,0.804 -0.558,1.556 -0.969,2.268c-0.319,0.551 -13.738,19.787 -14.936,21.505c-30.195,43.284 -32.081,44.73 -41.088,61.748c-0.179,0.338 -1.206,2.279 -3.687,3.043c-2.482,0.764 -4.422,-0.263 -4.76,-0.442Z" style="fill:#fc0;"/>
  <path d="M605.614,695.487c-0.326,-0.2 -2.204,-1.355 -2.807,-3.88c-0.186,-0.778 -0.228,-1.607 -0.103,-2.397c0.128,-0.812 0.489,-1.576 0.845,-2.317c0.268,-0.556 5.747,-9.25 6.252,-10.051c28.641,-45.447 60.355,-88.487 66.015,-96.206c0.226,-0.308 1.525,-2.08 4.094,-2.474c0.791,-0.121 1.62,-0.094 2.397,0.095c0.377,0.091 2.555,0.621 3.912,2.873c0.194,0.322 1.314,2.181 0.713,4.655c-0.195,0.799 -0.605,1.538 -1.034,2.24c-0.738,1.211 -38.412,51.337 -71.696,105.408c-0.201,0.326 -1.351,2.195 -3.874,2.797c-2.526,0.602 -4.388,-0.543 -4.714,-0.743Z" style="fill:#fc0;"/>
  <path d="M717.321,763.039c-0.32,-0.208 -2.161,-1.404 -2.701,-3.944c-0.166,-0.782 -0.187,-1.612 -0.043,-2.398c0.148,-0.809 0.523,-1.566 0.904,-2.295c0.566,-1.086 8.898,-13.132 18.046,-29.11c0.775,-1.353 12.79,-22.561 12.918,-22.707c0.543,-0.617 0.979,-1.349 1.632,-1.849c0.299,-0.23 2.02,-1.55 4.546,-1.229c0.385,0.049 2.608,0.332 4.208,2.418c1.55,2.021 1.276,4.173 1.229,4.547c-0.104,0.815 -0.437,1.593 -0.777,2.341c-0,0.001 -3.161,5.492 -7.091,12.433c-9.113,16.095 -10.866,19.37 -24.223,39.955c-0.208,0.321 -1.404,2.164 -3.946,2.704c-2.54,0.539 -4.381,-0.657 -4.702,-0.866Z" style="fill:#fc0;"/>
  <path d="M751.952,763.464c-0.337,-0.182 -2.27,-1.221 -3.017,-3.708c-0.231,-0.766 -0.32,-1.591 -0.242,-2.386c0.081,-0.819 0.421,-1.593 0.711,-2.363c0,-0.001 1.546,-2.88 2.649,-4.85c4.368,-7.798 6.071,-9.287 13.832,-17.943c0.256,-0.284 1.72,-1.918 4.309,-2.061c0.799,-0.044 1.622,0.062 2.377,0.325c2.483,0.865 3.449,2.887 3.616,3.237c1.098,2.298 0.384,4.347 0.26,4.703c-0.27,0.776 -0.782,1.449 -1.244,2.129c-0.522,0.768 -6.735,7.006 -9.564,11.251c-2.148,3.222 -5.143,9.03 -5.227,9.131c-0.526,0.631 -0.941,1.376 -1.579,1.894c-1.976,1.606 -4.135,1.393 -4.51,1.356c-1.248,-0.124 -1.264,-0.12 -2.371,-0.715Z" style="fill:#fc0;"/>
  <path d="M607.03,748.662c-0.351,-0.153 -2.362,-1.031 -3.309,-3.451c-0.291,-0.744 -0.448,-1.559 -0.434,-2.359c0.03,-1.73 0.195,-1.708 0.905,-3.287c1.697,-3.781 11.631,-27.21 71.074,-110.487c9.376,-13.137 16.631,-23.038 17.923,-24.804c0.225,-0.309 1.522,-2.081 4.087,-2.479c0.79,-0.123 1.62,-0.098 2.397,0.089c2.556,0.616 3.717,2.533 3.918,2.865c1.318,2.179 0.81,4.288 0.722,4.654c-0.193,0.799 -0.63,1.523 -1.029,2.242c-0.139,0.251 -72.284,98.054 -88.03,133.808c-1.035,2.352 -3.089,3.156 -3.444,3.295c-2.416,0.946 -4.43,0.067 -4.78,-0.086Z" style="fill:#fc0;"/>
  <path d="M629.36,762.684c-0.337,-0.183 -2.276,-1.233 -3.015,-3.722c-0.228,-0.766 -0.315,-1.592 -0.234,-2.387c0.083,-0.818 0.427,-1.591 0.718,-2.36c0.167,-0.444 3.397,-6.183 3.698,-6.718c22.973,-40.82 63.278,-95.142 78.21,-115.124c0.229,-0.307 1.544,-2.067 4.116,-2.437c0.791,-0.114 1.62,-0.081 2.395,0.115c0.377,0.095 2.549,0.643 3.887,2.907c0.191,0.324 1.295,2.192 0.672,4.661c-0.201,0.797 -0.633,1.524 -1.053,2.231c-0.542,0.911 -53.325,70.058 -79.027,116.819c-1.123,2.044 -1.904,3.497 -1.908,3.501c-0.528,0.63 -0.945,1.373 -1.585,1.89c-0.932,0.752 -1.943,1.053 -2.127,1.108c-2.489,0.739 -4.412,-0.302 -4.747,-0.484Z" style="fill:#fc0;"/>
  <path d="M667.175,764.009c-0.314,-0.217 -2.119,-1.468 -2.583,-4.022c-0.143,-0.787 -0.14,-1.617 0.027,-2.398c0.172,-0.804 0.562,-1.555 0.971,-2.268c0.342,-0.597 38.503,-55.066 58.184,-88.086c0.903,-1.515 0.889,-1.524 0.939,-1.578c0.552,-0.609 0.999,-1.335 1.658,-1.826c0.302,-0.225 2.043,-1.52 4.564,-1.162c2.603,0.37 3.941,2.168 4.173,2.479c0.225,0.302 1.52,2.043 1.162,4.564c-0.116,0.814 -0.474,1.579 -0.811,2.33c-0.205,0.457 -4.1,6.815 -4.461,7.404c-17.463,28.503 -45.368,68.882 -55.125,82.982c-0.218,0.315 -1.468,2.121 -4.024,2.585c-2.555,0.464 -4.36,-0.786 -4.674,-1.004Z" style="fill:#fc0;"/>
  <path d="M653.837,711.928l-45.471,0" style="fill:none;stroke:#96f;stroke-width:12.5px;"/>
  <path d="M653.837,758.22l0,-46.292" style="fill:none;stroke:#96f;stroke-width:12.5px;"/>
  <path d="M600.699,100.349l-0.282,664.585" style="fill:none;stroke:#0dcaf2;stroke-width:12.5px;"/>
  <path d="M896.041,766.494l-590.551,0" style="fill:none;stroke:#0dcaf2;stroke-width:12.5px;"/>
  <path d="M359.249,6.25l518.099,897.374" style="fill:none;stroke:#0dcaf2;stroke-width:12.5px;"/>
  <circle cx="600.849" cy="766.054" r="13.344" style="fill:#ff0;"/>
  <path d="M600.849,752.71c7.365,0 13.344,5.979 13.344,13.344c0,7.365 -5.979,13.344 -13.344,13.344c-7.364,-0 -13.344,-5.979 -13.344,-13.344c0,-7.365 5.98,-13.344 13.344,-13.344Zm0.005,1.801l-0,0.007c-10.94,0.207 -15.371,13.237 -7.656,20.167c5.574,5.006 14.91,3.434 18.225,-4.015c1.52,-3.413 1.249,-7.679 -0.931,-10.947c-3.612,-5.414 -9.373,-5.207 -9.638,-5.212Z" style="fill:#f33;"/>
  <circle cx="600.271" cy="422.367" r="13.344" style="fill:#ff0;"/>
  <path d="M600.271,409.023c7.365,-0 13.344,5.979 13.344,13.344c0,7.364 -5.979,13.344 -13.344,13.344c-7.364,-0 -13.344,-5.98 -13.344,-13.344c0,-7.365 5.98,-13.344 13.344,-13.344Zm0.005,1.801l0,0.007c-10.94,0.207 -15.371,13.237 -7.656,20.166c5.574,5.007 14.91,3.435 18.226,-4.014c1.519,-3.413 1.248,-7.679 -0.932,-10.947c-3.612,-5.414 -9.373,-5.207 -9.638,-5.212Z" style="fill:#f33;"/>
  <circle cx="600.474" cy="96.897" r="13.344" style="fill:#ff0;"/>
  <path d="M600.474,83.553c7.364,0 13.343,5.979 13.343,13.344c0,7.365 -5.979,13.344 -13.343,13.344c-7.365,-0 -13.344,-5.979 -13.344,-13.344c-0,-7.365 5.979,-13.344 13.344,-13.344Zm0.004,1.801l0,0.007c-10.94,0.207 -15.371,13.237 -7.655,20.166c5.574,5.007 14.91,3.435 18.225,-4.014c1.519,-3.413 1.249,-7.679 -0.931,-10.947c-3.612,-5.414 -9.373,-5.207 -9.639,-5.212Z" style="fill:#f33;"/>
</svg>
