<?xml version="1.0" encoding="UTF-8" standalone="no"?>
<!DOCTYPE svg PUBLIC "-//W3C//DTD SVG 1.1//EN" "http://www.w3.org/Graphics/SVG/1.1/DTD/svg11.dtd">
<svg width="190" height="210" viewBox="0 0 1525 1604" version="1.1" xmlns="http://www.w3.org/2000/svg" xmlns:xlink="http://www.w3.org/1999/xlink" xml:space="preserve" xmlns:serif="http://www.serif.com/" style="fill-rule:evenodd;clip-rule:evenodd;stroke-linecap:round;stroke-linejoin:round;stroke-miterlimit:1.5;">
    <g transform="matrix(100,0,0,100,464.246,934.897)">
    </g>
  <text x="397.546px" y="934.897px" style="font-family:'ArialMT', 'Arial', sans-serif;font-size:100px;fill:#8dcc33;">E</text>
  <g transform="matrix(100,0,0,100,1528.9,1512.83)">
    </g>
  <text x="1456.69px" y="1512.83px" style="font-family:'ArialMT', 'Arial', sans-serif;font-size:100px;fill:#8dcc33;">C</text>
  <g transform="matrix(100,0,0,100,59.375,1514.05)">
    </g>
  <text x="-7.324px" y="1514.05px" style="font-family:'ArialMT', 'Arial', sans-serif;font-size:100px;fill:#8dcc33;">B</text>
  <g transform="matrix(58.3333,0,0,58.3333,1075.53,220.598)">
    </g>
  <text x="1043.08px" y="220.598px" style="font-family:'ArialMT', 'Arial', sans-serif;font-size:58.333px;fill:#ff7bac;">1</text>
  <g transform="matrix(58.3333,0,0,58.3333,1067.89,1217.16)">
    </g>
  <text x="1035.45px" y="1217.16px" style="font-family:'ArialMT', 'Arial', sans-serif;font-size:58.333px;fill:#ff7bac;">2</text>
  <g transform="matrix(75,0,0,75,792.337,1175.24)">
    </g>
  <text x="750.626px" y="1175.24px" style="font-family:'ArialMT', 'Arial', sans-serif;font-size:75px;fill:#96f;">3</text>
  <g transform="matrix(75,0,0,75,757.401,545.675)">
    </g>
  <text x="715.689px" y="545.675px" style="font-family:'ArialMT', 'Arial', sans-serif;font-size:75px;fill:#96f;">4</text>
  <g transform="matrix(75,0,0,75,263.59,1230.09)">
    </g>
  <text x="221.879px" y="1230.09px" style="font-family:'ArialMT', 'Arial', sans-serif;font-size:75px;fill:#96f;">3</text>
  <g transform="matrix(58.3333,0,0,58.3333,1147.66,1392.07)">
    </g>
  <text x="1115.22px" y="1392.07px" style="font-family:'ArialMT', 'Arial', sans-serif;font-size:58.333px;fill:#ff7bac;">3</text>
  <g transform="matrix(58.3333,0,0,58.3333,1337.53,1491.22)">
    </g>
  <text x="1305.08px" y="1491.22px" style="font-family:'ArialMT', 'Arial', sans-serif;font-size:58.333px;fill:#ff7bac;">4</text>
  <g transform="matrix(100,0,0,100,1183.46,1280.02)">
    </g>
  <text x="1111.24px" y="1280.02px" style="font-family:'ArialMT', 'Arial', sans-serif;font-size:100px;fill:#8dcc33;">H</text>
  <g transform="matrix(100,0,0,100,1124.57,1603.21)">
    </g>
  <text x="1052.35px" y="1603.21px" style="font-family:'ArialMT', 'Arial', sans-serif;font-size:100px;fill:#8dcc33;">D</text>
  <g transform="matrix(100,0,0,100,1123.28,71.582)">
    </g>
  <text x="1056.58px" y="71.582px" style="font-family:'ArialMT', 'Arial', sans-serif;font-size:100px;fill:#8dcc33;">A</text>
  <path d="M1432.6,1498.92l-340.575,-1400.28" style="fill:none;stroke:#0dcaf2;stroke-width:12.5px;"/>
  <path d="M1432.6,1498.92l-937.137,-563.52" style="fill:none;stroke:#fc0;stroke-width:12.5px;"/>
  <path d="M1424.38,1479.98l-332.351,-199.85" style="fill:none;stroke:#0dcaf2;stroke-width:12.5px;"/>
  <path d="M1092.03,1280.13l-588.956,-354.152" style="fill:none;stroke:#33cc7b;stroke-width:12.5px;"/>
  <path d="M526.866,958.392l-23.954,33.587" style="fill:none;stroke:#0dcaf2;stroke-width:12.5px;"/>
  <path d="M468.274,972.86l32.811,20.212" style="fill:none;stroke:#0dcaf2;stroke-width:12.5px;"/>
  <path d="M1085.75,1446.43l-43.772,-1.112" style="fill:none;stroke:#0dcaf2;stroke-width:12.5px;"/>
  <path d="M1041.98,1445.31l-0,44.433" style="fill:none;stroke:#0dcaf2;stroke-width:12.5px;"/>
  <path d="M1092.03,1280.02l0,-1181.38" style="fill:none;stroke:#33cc7b;stroke-width:12.5px;"/>
  <path d="M1092.03,1494.61l0,-190.871" style="fill:none;stroke:#0dcaf2;stroke-width:12.5px;"/>
  <path d="M1092.03,98.642l-597.147,827.334" style="fill:none;stroke:#33cc7b;stroke-width:12.5px;"/>
  <path d="M488.074,935.403l-403.623,559.21" style="fill:none;stroke:#fc0;stroke-width:12.5px;"/>
  <path d="M1432.6,1498.92l-1348.15,-4.31" style="fill:none;stroke:#fc0;stroke-width:12.5px;"/>
  <path d="M1055.99,155.522l4.023,-5.462c6.625,4.879 14.638,7.512 22.866,7.512c1.036,-0 2.071,-0.042 3.104,-0.125l0.546,6.762c-1.214,0.098 -2.432,0.148 -3.65,0.148c-9.676,-0 -19.099,-3.096 -26.889,-8.835Z" style="fill:#f33;"/>
  <path d="M1055.99,155.522l4.023,-5.462c6.625,4.879 14.638,7.512 22.866,7.512c1.036,-0 2.071,-0.042 3.104,-0.125l0.546,6.762c-1.214,0.098 -2.432,0.148 -3.65,0.148c-9.676,-0 -19.099,-3.096 -26.889,-8.835Zm2.55,-0.414c2.239,1.516 6.507,4.091 12.396,5.771c5.919,1.688 10.929,1.747 13.642,1.636l-0.255,-3.162c-2.539,0.095 -7.12,0.018 -12.517,-1.522c-5.369,-1.532 -9.284,-3.865 -11.385,-5.277l-1.881,2.554Z" style="fill:#ff7bac;"/>
  <path d="M1097.84,1350.14l-0.103,-6.784c12.355,-0.188 23.871,-6.286 30.971,-16.4c0.595,-0.848 1.155,-1.72 1.68,-2.612l5.849,3.438c-0.617,1.05 -1.276,2.075 -1.976,3.071c-8.348,11.894 -21.892,19.066 -36.421,19.287Z" style="fill:#f33;"/>
  <path d="M1097.84,1350.14l-0.103,-6.784c12.355,-0.188 23.871,-6.286 30.971,-16.4c0.595,-0.848 1.155,-1.72 1.68,-2.612l5.849,3.438c-0.617,1.05 -1.276,2.075 -1.976,3.071c-8.348,11.894 -21.892,19.066 -36.421,19.287Zm1.779,-1.873c3.655,-0.2 11.354,-1.097 19.57,-5.92c8.078,-4.743 12.579,-10.89 14.54,-13.943l-2.734,-1.607c-1.851,2.861 -6.013,8.474 -13.411,12.817c-7.523,4.416 -14.577,5.281 -18.013,5.481l0.048,3.172Z" style="fill:#ff7bac;"/>
  <path d="M1372.42,1470.26l6.038,3.096c-2.938,5.728 -4.394,12.099 -4.237,18.534l-6.783,0.165c-0.184,-7.567 1.528,-15.059 4.982,-21.795Z" style="fill:#f33;"/>
  <path d="M1372.42,1470.26l6.038,3.096c-2.938,5.728 -4.394,12.099 -4.237,18.534l-6.783,0.165c-0.184,-7.567 1.528,-15.059 4.982,-21.795Zm0.818,2.451c-0.818,1.769 -2.047,4.758 -2.911,8.538c-0.864,3.779 -1.056,7.005 -1.088,8.954l3.187,-0.078c0.138,-5.839 1.235,-10.64 3.649,-15.959l-2.837,-1.455Z" style="fill:#ff7bac;"/>
  <path d="M1085.38,1221.35l-0.374,6.775c-8.216,-0.454 -16.362,1.733 -23.246,6.24c-4.745,3.107 -8.747,7.223 -11.719,12.054l-5.779,-3.555c3.496,-5.681 8.201,-10.522 13.782,-14.175c8.095,-5.301 17.674,-7.872 27.336,-7.339Z" style="fill:#f33;"/>
  <path d="M1085.38,1221.35l-0.374,6.775c-8.216,-0.454 -16.362,1.733 -23.246,6.24c-4.745,3.107 -8.747,7.223 -11.719,12.054l-5.779,-3.555c3.496,-5.681 8.201,-10.522 13.782,-14.175c8.095,-5.301 17.674,-7.872 27.336,-7.339Zm-1.906,1.725c-5.356,-0.086 -21.44,0.905 -33.812,15.411c-1.099,1.288 -2.138,2.741 -2.867,3.814l2.688,1.653c2.083,-3.079 6.897,-9.246 15.472,-13.496c7.81,-3.871 14.901,-4.238 18.343,-4.196l0.176,-3.186Z" style="fill:#ff7bac;"/>
</svg>
