<?xml version="1.0" encoding="UTF-8" standalone="no"?>
<!DOCTYPE svg PUBLIC "-//W3C//DTD SVG 1.1//EN" "http://www.w3.org/Graphics/SVG/1.1/DTD/svg11.dtd">
<svg width="210" height="168" viewBox="0 0 1449 1239" version="1.1" xmlns="http://www.w3.org/2000/svg" xmlns:xlink="http://www.w3.org/1999/xlink" xml:space="preserve" xmlns:serif="http://www.serif.com/" style="fill-rule:evenodd;clip-rule:evenodd;stroke-linecap:round;stroke-linejoin:round;stroke-miterlimit:1.5;">
    <g transform="matrix(1,0,0,1,-5297.9,-2709.31)">
        <g transform="matrix(1,0,0,1,1938.72,767.109)">
            <g transform="matrix(100,0,0,100,4329.3,2013.78)">
            </g>
          <text x="4262.6px" y="2013.78px" style="font-family:'ArialMT', 'Arial', sans-serif;font-size:100px;fill:rgb(141,204,51);">A</text>
        </g>
      <g transform="matrix(1,0,0,1,1637.32,1406.78)">
            <g transform="matrix(100,0,0,100,4329.3,2013.78)">
            </g>
        <text x="4262.6px" y="2013.78px" style="font-family:'ArialMT', 'Arial', sans-serif;font-size:100px;fill:rgb(141,204,51);">E</text>
        </g>
      <g transform="matrix(1,0,0,1,2119.51,1409.78)">
            <g transform="matrix(100,0,0,100,4323.69,2013.78)">
            </g>
        <text x="4262.6px" y="2013.78px" style="font-family:'ArialMT', 'Arial', sans-serif;font-size:100px;fill:rgb(141,204,51);">F</text>
        </g>
      <g transform="matrix(1,0,0,1,2412.06,1458.79)">
            <g transform="matrix(100,0,0,100,4340.38,2013.78)">
            </g>
        <text x="4262.6px" y="2013.78px" style="font-family:'ArialMT', 'Arial', sans-serif;font-size:100px;fill:rgb(141,204,51);">G</text>
        </g>
      <g transform="matrix(1,0,0,1,1256.95,1406.78)">
            <g transform="matrix(100,0,0,100,4334.82,2013.78)">
            </g>
        <text x="4262.6px" y="2013.78px" style="font-family:'ArialMT', 'Arial', sans-serif;font-size:100px;fill:rgb(141,204,51);">D</text>
        </g>
      <g transform="matrix(1,0,0,1,1553.3,1723.1)">
            <g transform="matrix(100,0,0,100,4329.3,2013.78)">
            </g>
        <text x="4262.6px" y="2013.78px" style="font-family:'ArialMT', 'Arial', sans-serif;font-size:100px;fill:rgb(141,204,51);">B</text>
        </g>
      <g transform="matrix(1,0,0,1,1030.31,1421.78)">
            <g transform="matrix(100,0,0,100,4334.82,2013.78)">
            </g>
        <text x="4262.6px" y="2013.78px" style="font-family:'ArialMT', 'Arial', sans-serif;font-size:100px;fill:rgb(141,204,51);">C</text>
        </g>
      <g transform="matrix(1,0,0,1,866.869,1650.76)">
            <g transform="matrix(100,0,0,100,5436.08,2276.17)">
            </g>
        <text x="4902.39px" y="2276.17px" style="font-family:'ArialMT', 'Arial', sans-serif;font-size:100px;fill:rgb(30,58,95);">Figure 6–14</text>
        </g>
      <g transform="matrix(0.70856,0.171491,0.171491,0.89909,2977.21,440.618)">
            <path d="M4147.9,1842.39L3042.27,2770.07" style="fill:none;stroke:rgb(13,202,242);stroke-width:12.76px;"/>
        </g>
      <g transform="matrix(0.70856,0.171491,0.171491,0.89909,2284.76,1485.24)">
            <path d="M4050.42,1415.92L5590.79,1122.11" style="fill:none;stroke:rgb(13,202,242);stroke-width:12.76px;"/>
        </g>
      <g transform="matrix(0.815397,0.179328,0.207051,0.902073,3434.87,619.959)">
            <path d="M3306.36,2483.17L1966.81,2749.47" style="fill:none;stroke:rgb(13,202,242);stroke-width:11.88px;"/>
        </g>
      <g transform="matrix(0.698544,0.190156,0.210215,0.826931,3283.45,699.339)">
            <path d="M3710.51,1697.25L4093.45,2388.54" style="fill:none;stroke:rgb(13,202,242);stroke-width:12.96px;"/>
        </g>
      <g transform="matrix(0.70856,0.171491,0.171491,0.89909,3168.5,507.466)">
            <path d="M3883.73,1818.43L3090.46,3097.95" style="fill:none;stroke:rgb(13,202,242);stroke-width:12.76px;"/>
        </g>
      <g transform="matrix(0.70856,0.171491,0.171491,0.89909,1723.39,1485.24)">
            <path d="M4881.04,1257.49L5504.63,1549.96" style="fill:none;stroke:rgb(13,202,242);stroke-width:12.76px;"/>
        </g>
      <g transform="matrix(0.70856,0.171491,0.171491,0.89909,4030.77,1628.54)">
            <path d="M3047.81,1447.77L2131.02,2034.05" style="fill:none;stroke:rgb(13,202,242);stroke-width:12.76px;"/>
        </g>
    </g>
</svg>
