<?xml version="1.0" encoding="UTF-8" standalone="no"?>
<!DOCTYPE svg PUBLIC "-//W3C//DTD SVG 1.1//EN" "http://www.w3.org/Graphics/SVG/1.1/DTD/svg11.dtd">
<svg width="180" height="180" viewBox="0 0 1071 1216" version="1.1" xmlns="http://www.w3.org/2000/svg" xmlns:xlink="http://www.w3.org/1999/xlink" xml:space="preserve" xmlns:serif="http://www.serif.com/" style="fill-rule:evenodd;clip-rule:evenodd;stroke-linecap:round;stroke-linejoin:round;stroke-miterlimit:1.5;">
    <g transform="matrix(128.897,0,0,128.897,402.731,549.321)">
    </g>
  <text x="309.646px" y="549.321px" style="font-family:'ArialMT', 'Arial', sans-serif;font-size:128.897px;fill:#8dcc33;">D</text>
  <g transform="matrix(128.897,0,0,128.897,1075.41,1057)">
    </g>
  <text x="982.323px" y="1057px" style="font-family:'ArialMT', 'Arial', sans-serif;font-size:128.897px;fill:#8dcc33;">C</text>
  <g transform="matrix(128.897,0,0,128.897,790.255,92.2672)">
    </g>
  <text x="704.281px" y="92.267px" style="font-family:'ArialMT', 'Arial', sans-serif;font-size:128.897px;fill:#8dcc33;">A</text>
  <g transform="matrix(128.897,0,0,128.897,76.5327,1056.71)">
    </g>
  <text x="-9.441px" y="1056.71px" style="font-family:'ArialMT', 'Arial', sans-serif;font-size:128.897px;fill:#8dcc33;">B</text>
  <g transform="matrix(128.897,0,0,128.897,980.198,692.219)">
    </g>
  <text x="894.225px" y="692.219px" style="font-family:'ArialMT', 'Arial', sans-serif;font-size:128.897px;fill:#8dcc33;">E</text>
  <g transform="matrix(100,0,0,100,817.207,1194.91)">
    </g>
  <text x="283.515px" y="1194.91px" style="font-family:'ArialMT', 'Arial', sans-serif;font-size:100px;fill:#1e3a5f;">Figure 6–15</text>
  <path d="M723.02,123.08l-627.51,879.717" style="fill:none;stroke:#0dcaf2;stroke-width:12.5px;"/>
  <path d="M437.699,527.825l424.139,119.843" style="fill:none;stroke:#0dcaf2;stroke-width:12.5px;"/>
  <path d="M723.02,123.08l239.251,881.389" style="fill:none;stroke:#0dcaf2;stroke-width:12.5px;"/>
  <path d="M102.466,1004.39l853.341,0" style="fill:none;stroke:#0dcaf2;stroke-width:12.5px;"/>
</svg>
