<?xml version="1.0" encoding="UTF-8" standalone="no"?>
<!DOCTYPE svg PUBLIC "-//W3C//DTD SVG 1.1//EN" "http://www.w3.org/Graphics/SVG/1.1/DTD/svg11.dtd">
<svg width="256" height="48" viewBox="0 0 678 87" version="1.1" xmlns="http://www.w3.org/2000/svg" xmlns:xlink="http://www.w3.org/1999/xlink" xml:space="preserve" xmlns:serif="http://www.serif.com/" style="fill-rule:evenodd;clip-rule:evenodd;stroke-linecap:round;stroke-linejoin:round;stroke-miterlimit:1.5;">
    <path d="M87.563,-845.651l264.925,0" style="fill:none;stroke:#ff822e;stroke-width:6.25px;"/>
  <path d="M350.503,-1213.24l-254.083,367.548" style="fill:none;stroke:#0dcaf2;stroke-width:6.25px;"/>
  <path d="M118.104,-877.062l-19.703,28.503" style="fill:none;stroke:#0dcaf2;stroke-width:6.25px;"/>
  <g transform="matrix(100,0,0,100,147.303,76.0475)">
    </g>
  <text x="75.086px" y="76.047px" style="font-family:'ArialMT', 'Arial', sans-serif;font-size:100px;fill:#f20d5e;">D</text>
  <path d="M216.645,81.97c-0,1.676 -0.039,1.757 -1.224,2.942c-0.749,0.75 -1.874,1.204 -2.933,1.224c-4.905,0.094 -58.645,1.118 -61.331,0c-0.978,-0.406 -2.184,-0.474 -2.933,-1.224c-0.011,-0.011 -1.227,-2.944 -1.224,-2.952c0.406,-0.979 0.475,-2.184 1.224,-2.933c0.749,-0.749 1.874,-1.204 2.933,-1.224c4.906,-0.093 58.645,-1.117 61.331,0c0.978,0.407 2.184,0.475 2.933,1.224c1.185,1.185 1.224,1.267 1.224,2.943Z" style="fill:#0dcaf2;"/>
  <path d="M69.644,81.97c0,1.676 -0.038,1.757 -1.224,2.942c-0.749,0.75 -1.873,1.204 -2.932,1.224c-4.906,0.094 -58.645,1.118 -61.331,0c-0.978,-0.406 -2.184,-0.474 -2.933,-1.224c-0.012,-0.011 -1.227,-2.944 -1.224,-2.952c0.406,-0.979 0.475,-2.184 1.224,-2.933c0.749,-0.749 1.874,-1.204 2.933,-1.224c4.905,-0.093 58.645,-1.117 61.331,0c0.978,0.407 2.183,0.475 2.932,1.224c1.186,1.185 1.224,1.267 1.224,2.943Z" style="fill:#0dcaf2;"/>
  <path d="M375.688,82.137c-0,1.677 -0.039,1.758 -1.224,2.943c-0.749,0.749 -1.874,1.204 -2.933,1.224c-4.905,0.094 -58.645,1.117 -61.331,0c-0.978,-0.407 -2.183,-0.475 -2.932,-1.224c-0.012,-0.012 -1.228,-2.944 -1.224,-2.953c0.405,-0.978 0.475,-2.183 1.224,-2.932c0.749,-0.749 1.873,-1.204 2.932,-1.224c4.906,-0.094 58.645,-1.117 61.331,-0c0.978,0.407 2.184,0.475 2.933,1.224c1.185,1.185 1.224,1.266 1.224,2.942Z" style="fill:#0dcaf2;"/>
  <path d="M520.674,82.137c0,1.677 -0.039,1.758 -1.224,2.943c-0.749,0.749 -1.874,1.204 -2.933,1.224c-4.905,0.094 -58.645,1.117 -61.331,0c-0.978,-0.407 -2.183,-0.475 -2.932,-1.224c-0.012,-0.012 -1.228,-2.944 -1.224,-2.953c0.405,-0.978 0.475,-2.183 1.224,-2.932c0.749,-0.749 1.873,-1.204 2.932,-1.224c4.906,-0.094 58.646,-1.117 61.331,-0c0.978,0.407 2.184,0.475 2.933,1.224c1.185,1.185 1.224,1.266 1.224,2.942Z" style="fill:#0dcaf2;"/>
  <path d="M677.809,82.137c-0,1.677 -0.039,1.758 -1.224,2.943c-0.749,0.749 -1.874,1.204 -2.933,1.224c-4.905,0.094 -58.645,1.117 -61.331,0c-0.978,-0.407 -2.184,-0.475 -2.933,-1.224c-0.011,-0.012 -1.227,-2.944 -1.224,-2.953c0.406,-0.978 0.475,-2.183 1.224,-2.932c0.749,-0.749 1.874,-1.204 2.933,-1.224c4.906,-0.094 58.645,-1.117 61.331,-0c0.978,0.407 2.184,0.475 2.933,1.224c1.185,1.185 1.224,1.266 1.224,2.942Z" style="fill:#0dcaf2;"/>
  <g transform="matrix(100,0,0,100,292.239,76.0475)">
    </g>
  <text x="225.54px" y="76.047px" style="font-family:'ArialMT', 'Arial', sans-serif;font-size:100px;fill:#f20d5e;">E</text>
  <g transform="matrix(100,0,0,100,446.405,76.0475)">
    </g>
  <text x="385.321px" y="76.047px" style="font-family:'ArialMT', 'Arial', sans-serif;font-size:100px;fill:#f20d5e;">F</text>
  <g transform="matrix(100,0,0,100,604.626,76.0475)">
    </g>
  <text x="526.843px" y="76.047px" style="font-family:'ArialMT', 'Arial', sans-serif;font-size:100px;fill:#f20d5e;">G</text>
  <g transform="matrix(100,0,0,100,59.5254,72.8027)">
    </g>
  <text x="3.91px" y="72.803px" style="font-family:'ArialMT', 'Arial', sans-serif;font-size:100px;fill:#8dcc33;">?</text>
  <g transform="matrix(100,0,0,100,209.001,72.8027)">
    </g>
  <text x="153.386px" y="72.803px" style="font-family:'ArialMT', 'Arial', sans-serif;font-size:100px;fill:#8dcc33;">?</text>
  <g transform="matrix(100,0,0,100,367.62,72.8027)">
    </g>
  <text x="312.005px" y="72.803px" style="font-family:'ArialMT', 'Arial', sans-serif;font-size:100px;fill:#8dcc33;">?</text>
  <g transform="matrix(100,0,0,100,513.769,72.8027)">
    </g>
  <text x="458.154px" y="72.803px" style="font-family:'ArialMT', 'Arial', sans-serif;font-size:100px;fill:#8dcc33;">?</text>
  <g transform="matrix(100,0,0,100,670.288,72.8027)">
    </g>
  <text x="614.672px" y="72.803px" style="font-family:'ArialMT', 'Arial', sans-serif;font-size:100px;fill:#8dcc33;">?</text>
</svg>
