<?xml version="1.0" encoding="UTF-8" standalone="no"?>
<!DOCTYPE svg PUBLIC "-//W3C//DTD SVG 1.1//EN" "http://www.w3.org/Graphics/SVG/1.1/DTD/svg11.dtd">
<svg width="712" height="168" viewBox="0 0 4570 995" version="1.1" xmlns="http://www.w3.org/2000/svg" xmlns:xlink="http://www.w3.org/1999/xlink" xml:space="preserve" xmlns:serif="http://www.serif.com/" style="fill-rule:evenodd;clip-rule:evenodd;stroke-linecap:round;stroke-linejoin:round;stroke-miterlimit:1.5;">
    <g transform="matrix(1,0,0,1,-5078.81,-2346.01)">
        <g transform="matrix(1,0,0,1,2133.79,526.82)">
            <g transform="matrix(100,0,0,100,4334.82,2013.78)">
            </g>
          <text x="4262.6px" y="2013.78px" style="font-family:'ArialMT', 'Arial', sans-serif;font-size:100px;fill:rgb(13,202,242);">D</text>
        </g>
      <g transform="matrix(1,0,0,1,3684.87,526.82)">
            <g transform="matrix(100,0,0,100,4334.82,2013.78)">
            </g>
        <text x="4262.6px" y="2013.78px" style="font-family:'ArialMT', 'Arial', sans-serif;font-size:100px;fill:rgb(13,202,242);">D</text>
        </g>
      <g transform="matrix(1,0,0,1,5239.82,526.82)">
            <g transform="matrix(100,0,0,100,4334.82,2013.78)">
            </g>
        <text x="4262.6px" y="2013.78px" style="font-family:'ArialMT', 'Arial', sans-serif;font-size:100px;fill:rgb(13,202,242);">D</text>
        </g>
      <g transform="matrix(1,0,0,1,905.084,1212.21)">
            <g transform="matrix(100,0,0,100,4329.3,2013.78)">
            </g>
        <text x="4262.6px" y="2013.78px" style="font-family:'ArialMT', 'Arial', sans-serif;font-size:100px;fill:rgb(13,202,242);">B</text>
        </g>
      <g transform="matrix(1,0,0,1,2456.16,1212.21)">
            <g transform="matrix(100,0,0,100,4329.3,2013.78)">
            </g>
        <text x="4262.6px" y="2013.78px" style="font-family:'ArialMT', 'Arial', sans-serif;font-size:100px;fill:rgb(13,202,242);">B</text>
        </g>
      <g transform="matrix(1,0,0,1,4011.11,1212.21)">
            <g transform="matrix(100,0,0,100,4329.3,2013.78)">
            </g>
        <text x="4262.6px" y="2013.78px" style="font-family:'ArialMT', 'Arial', sans-serif;font-size:100px;fill:rgb(13,202,242);">B</text>
        </g>
      <g transform="matrix(1,0,0,1,897.004,519.215)">
            <g transform="matrix(100,0,0,100,4329.3,2013.78)">
            </g>
        <text x="4262.6px" y="2013.78px" style="font-family:'ArialMT', 'Arial', sans-serif;font-size:100px;fill:rgb(13,202,242);">A</text>
        </g>
      <g transform="matrix(1,0,0,1,2448.08,519.215)">
            <g transform="matrix(100,0,0,100,4329.3,2013.78)">
            </g>
        <text x="4262.6px" y="2013.78px" style="font-family:'ArialMT', 'Arial', sans-serif;font-size:100px;fill:rgb(13,202,242);">A</text>
        </g>
      <g transform="matrix(1,0,0,1,4003.03,519.215)">
            <g transform="matrix(100,0,0,100,4329.3,2013.78)">
            </g>
        <text x="4262.6px" y="2013.78px" style="font-family:'ArialMT', 'Arial', sans-serif;font-size:100px;fill:rgb(13,202,242);">A</text>
        </g>
      <g transform="matrix(1,0,0,1,2127.65,1205.91)">
            <g transform="matrix(100,0,0,100,4334.82,2013.78)">
            </g>
        <text x="4262.6px" y="2013.78px" style="font-family:'ArialMT', 'Arial', sans-serif;font-size:100px;fill:rgb(13,202,242);">C</text>
        </g>
      <g transform="matrix(1,0,0,1,3678.72,1205.91)">
            <g transform="matrix(100,0,0,100,4334.82,2013.78)">
            </g>
        <text x="4262.6px" y="2013.78px" style="font-family:'ArialMT', 'Arial', sans-serif;font-size:100px;fill:rgb(13,202,242);">C</text>
        </g>
      <g transform="matrix(1,0,0,1,5233.67,1205.91)">
            <g transform="matrix(100,0,0,100,4334.82,2013.78)">
            </g>
        <text x="4262.6px" y="2013.78px" style="font-family:'ArialMT', 'Arial', sans-serif;font-size:100px;fill:rgb(13,202,242);">C</text>
        </g>
      <g transform="matrix(-0.369947,0.319198,-0.461864,1.10894,8500.66,1779.73)">
            <path d="M8371.81,226.33L3129.8,2398.76" style="fill:none;stroke:rgb(255,123,172);stroke-width:7.13px;stroke-dasharray:21.39,21.39,0,0,0,0;"/>
        </g>
      <g transform="matrix(-0.12439,0.859351,0.653902,2.23213,6208.25,-6918.99)">
            <path d="M5072.97,1468.46L2309.21,2532.49" style="fill:none;stroke:rgb(51,204,123);stroke-width:5.64px;"/>
        </g>
      <g transform="matrix(0.369491,0.235755,0.169163,1.08853,5626.24,-100.458)">
            <path d="M5661.84,1182.44L3787.65,2181.29" style="fill:none;stroke:rgb(255,204,0);stroke-width:12.37px;"/>
        </g>
      <g transform="matrix(0.369491,0.235755,0.169163,1.08853,7181.19,-100.458)">
            <path d="M5485.84,1560.56L2017.01,2563.03" style="fill:none;stroke:rgb(255,204,0);stroke-width:12.37px;"/>
        </g>
      <g transform="matrix(0.369491,-0.235755,0.169163,-1.08853,4075.17,5787.25)">
            <path d="M5661.33,1182.82L2017.01,2563.03" style="fill:none;stroke:rgb(255,204,0);stroke-width:12.37px;"/>
        </g>
      <g transform="matrix(0.369491,-0.235755,0.169163,-1.08853,5626.24,5787.25)">
            <path d="M4062.11,1526.85L2017.01,2563.03" style="fill:none;stroke:rgb(255,204,0);stroke-width:12.37px;"/>
        </g>
      <g transform="matrix(0.369491,-0.235755,0.169163,-1.08853,7181.19,5787.25)">
            <path d="M5525.2,1474.14L2017.01,2563.03" style="fill:none;stroke:rgb(255,204,0);stroke-width:12.37px;"/>
        </g>
      <g transform="matrix(0.645523,0,0,0.645523,588.368,1250.22)">
            <path d="M8971.53,2985.62L7208.71,2985.62L7208.71,1949.95L8971.53,1949.95L8971.53,2985.62ZM8952.17,1969.31L7228.08,1969.31L7228.08,2966.25L8952.17,2966.25L8952.17,1969.31Z" style="fill:rgb(51,204,123);"/>
        </g>
      <g transform="matrix(0.645523,0,0,0.645523,2139.44,1250.22)">
            <path d="M8971.53,2985.62L7208.71,2985.62L7208.71,1949.95L8971.53,1949.95L8971.53,2985.62ZM8952.17,1969.31L7228.08,1969.31L7228.08,2966.25L8952.17,2966.25L8952.17,1969.31Z" style="fill:rgb(51,204,123);"/>
        </g>
      <g transform="matrix(0.645523,0,0,0.645523,3694.39,1250.22)">
            <path d="M8971.53,2985.62L7208.71,2985.62L7208.71,1949.95L8971.53,1949.95L8971.53,2985.62ZM8952.17,1969.31L7228.08,1969.31L7228.08,2966.25L8952.17,2966.25L8952.17,1969.31Z" style="fill:rgb(51,204,123);"/>
        </g>
      <g transform="matrix(1,0,0,1,1051.5,207.235)">
            <path d="M7309.59,2343.64C7309.32,2343.37 7307.77,2341.81 7307.77,2339.22C7307.77,2338.42 7307.92,2337.6 7308.22,2336.86C7308.53,2336.1 7309.02,2335.41 7309.58,2334.8C7312.21,2331.98 7315.04,2329.35 7317.77,2326.62C7318.04,2326.35 7319.59,2324.8 7322.19,2324.8C7322.99,2324.8 7323.8,2324.95 7324.54,2325.25C7326.97,2326.25 7327.82,2328.33 7327.97,2328.68C7328.94,2331.04 7328.12,2333.05 7327.97,2333.39C7327.66,2334.16 7327.17,2334.85 7326.61,2335.45C7323.98,2338.28 7321.16,2340.91 7318.43,2343.64C7318.16,2343.91 7316.61,2345.46 7314.01,2345.46C7311.41,2345.46 7309.86,2343.91 7309.59,2343.64Z" style="fill:rgb(255,123,172);"/>
        </g>
      <g transform="matrix(1,0,0,1,1051.5,207.235)">
            <path d="M7309.57,2371.52C7309.29,2371.25 7307.74,2369.69 7307.74,2367.1C7307.74,2366.72 7307.74,2364.54 7309.56,2362.69C7319.49,2352.53 7329.64,2342.6 7339.68,2332.56C7339.95,2332.29 7341.51,2330.74 7344.1,2330.74C7344.9,2330.74 7345.72,2330.89 7346.46,2331.19C7348.89,2332.19 7349.74,2334.27 7349.89,2334.63C7350.86,2336.98 7350.03,2338.99 7349.89,2339.34C7349.57,2340.1 7349.1,2340.8 7348.53,2341.39C7338.6,2351.54 7328.44,2361.48 7318.4,2371.52C7318.13,2371.79 7316.58,2373.34 7313.98,2373.34C7311.39,2373.34 7309.84,2371.79 7309.57,2371.52Z" style="fill:rgb(255,123,172);"/>
        </g>
      <g transform="matrix(1,0,0,1,1051.5,207.235)">
            <path d="M7308.74,2409.82C7308.47,2409.55 7306.92,2407.99 7306.92,2405.4C7306.92,2402.82 7308.47,2401.26 7308.73,2400.98C7327.94,2381.55 7347.36,2362.35 7366.68,2343.04C7366.95,2342.77 7368.5,2341.21 7371.1,2341.21C7371.9,2341.21 7372.72,2341.37 7373.45,2341.67C7375.89,2342.67 7376.74,2344.74 7376.89,2345.1C7377.03,2345.45 7377.86,2347.45 7376.89,2349.81C7376.57,2350.57 7376.1,2351.28 7375.53,2351.87C7356.32,2371.3 7336.9,2390.5 7317.58,2409.82C7317.31,2410.09 7315.76,2411.64 7313.16,2411.64C7310.56,2411.64 7309.01,2410.09 7308.74,2409.82Z" style="fill:rgb(255,123,172);"/>
        </g>
      <g transform="matrix(1,0,0,1,1051.5,207.235)">
            <path d="M7308.71,2448.9C7308.44,2448.63 7306.89,2447.08 7306.89,2444.48C7306.89,2441.9 7308.44,2440.34 7308.7,2440.07C7337.84,2410.71 7367.2,2381.58 7396.45,2352.33C7396.72,2352.06 7398.27,2350.51 7400.87,2350.51C7401.66,2350.51 7402.48,2350.66 7403.22,2350.96C7405.65,2351.96 7406.51,2354.04 7406.65,2354.4C7406.8,2354.74 7407.62,2356.75 7406.65,2359.11C7405.51,2361.87 7404.94,2361.52 7317.55,2448.9C7317.28,2449.17 7315.73,2450.73 7313.13,2450.73C7310.53,2450.73 7308.98,2449.17 7308.71,2448.9Z" style="fill:rgb(255,123,172);"/>
        </g>
      <g transform="matrix(1,0,0,1,1051.5,207.235)">
            <path d="M7308.41,2493.34C7308.14,2493.06 7306.59,2491.51 7306.59,2488.91C7306.59,2486.33 7308.14,2484.77 7308.41,2484.5C7349.11,2443.57 7390.05,2402.86 7430.87,2362.04C7431.14,2361.77 7432.7,2360.21 7435.29,2360.21C7436.09,2360.21 7436.91,2360.37 7437.65,2360.67C7440.08,2361.67 7440.93,2363.74 7441.08,2364.1C7441.22,2364.45 7442.05,2366.46 7441.08,2368.81C7440.77,2369.57 7440.3,2370.29 7439.72,2370.87C7399.01,2411.8 7358.07,2452.51 7317.25,2493.34C7316.98,2493.61 7315.43,2495.16 7312.83,2495.16C7310.24,2495.16 7308.69,2493.61 7308.41,2493.34Z" style="fill:rgb(255,123,172);"/>
        </g>
      <g transform="matrix(1,0,0,1,1051.5,207.235)">
            <path d="M7308.81,2532.43C7308.54,2532.16 7306.99,2530.61 7306.99,2528.02C7306.99,2525.43 7308.53,2523.87 7308.8,2523.6C7359.07,2473.1 7409.58,2422.83 7459.96,2372.44C7460.23,2372.17 7461.79,2370.62 7464.38,2370.62C7465.18,2370.62 7466,2370.77 7466.74,2371.08C7467.1,2371.22 7469.17,2372.08 7470.17,2374.51C7471.14,2376.86 7470.31,2378.87 7470.17,2379.22C7469.86,2379.98 7469.39,2380.69 7468.81,2381.27C7418.54,2431.78 7368.03,2482.05 7317.65,2532.43C7317.38,2532.7 7315.82,2534.26 7313.23,2534.26C7310.63,2534.26 7309.08,2532.7 7308.81,2532.43Z" style="fill:rgb(255,123,172);"/>
        </g>
      <g transform="matrix(1,0,0,1,1051.5,207.235)">
            <path d="M7306.6,2582.71C7306.33,2582.44 7304.78,2580.88 7304.78,2578.29C7304.78,2575.7 7306.32,2574.15 7306.59,2573.88C7369.81,2510.43 7433.26,2447.21 7496.59,2383.88C7496.86,2383.61 7498.41,2382.06 7501.01,2382.06C7501.81,2382.06 7502.62,2382.21 7503.36,2382.52C7505.79,2383.52 7506.64,2385.59 7506.79,2385.95C7506.94,2386.3 7507.76,2388.3 7506.79,2390.66C7506.48,2391.42 7506.01,2392.13 7505.43,2392.72C7442.22,2456.16 7378.77,2519.38 7315.44,2582.71C7315.17,2582.98 7313.62,2584.53 7311.02,2584.53C7308.42,2584.53 7306.87,2582.98 7306.6,2582.71Z" style="fill:rgb(255,123,172);"/>
        </g>
      <g transform="matrix(1,0,0,1,1051.5,207.235)">
            <path d="M7307.21,2637.83C7306.94,2637.56 7305.39,2636.01 7305.39,2633.41C7305.39,2630.82 7306.94,2629.27 7307.2,2629C7384.22,2551.75 7461.47,2474.73 7538.61,2397.59C7538.88,2397.32 7540.43,2395.77 7543.03,2395.77C7543.83,2395.77 7544.64,2395.92 7545.38,2396.23C7547.82,2397.23 7548.67,2399.3 7548.82,2399.66C7549.78,2402.01 7548.96,2404.02 7548.82,2404.37C7548.5,2405.13 7548.04,2405.84 7547.45,2406.43C7470.44,2483.68 7393.19,2560.7 7316.05,2637.83C7315.78,2638.1 7314.23,2639.65 7311.63,2639.65C7309.03,2639.65 7307.48,2638.1 7307.21,2637.83Z" style="fill:rgb(255,123,172);"/>
        </g>
      <g transform="matrix(1,0,0,1,1051.5,207.235)">
            <path d="M7309.65,2693.05C7309.38,2692.78 7307.83,2691.23 7307.83,2688.63C7307.83,2686.04 7309.37,2684.49 7309.64,2684.22C7400.36,2593.27 7491.31,2502.55 7582.15,2411.71C7582.42,2411.44 7583.97,2409.89 7586.57,2409.89C7587.37,2409.89 7588.18,2410.04 7588.92,2410.34C7589.28,2410.49 7591.36,2411.35 7592.36,2413.78C7592.5,2414.12 7593.32,2416.13 7592.36,2418.49C7592.04,2419.25 7591.58,2419.96 7590.99,2420.54C7500.28,2511.49 7409.32,2602.22 7318.49,2693.05C7318.22,2693.32 7316.66,2694.87 7314.07,2694.87C7311.47,2694.87 7309.92,2693.32 7309.65,2693.05Z" style="fill:rgb(255,123,172);"/>
        </g>
      <g transform="matrix(1,0,0,1,1051.5,207.235)">
            <path d="M7306.22,2758.78C7305.95,2758.51 7304.4,2756.96 7304.4,2754.36C7304.4,2751.77 7305.95,2750.22 7306.22,2749.95C7413.91,2642.02 7521.83,2534.33 7629.64,2426.52C7629.91,2426.25 7631.46,2424.7 7634.06,2424.7C7634.86,2424.7 7635.68,2424.85 7636.41,2425.16C7636.77,2425.3 7638.85,2426.16 7639.85,2428.59C7640.82,2430.94 7639.99,2432.95 7639.85,2433.3C7639.53,2434.06 7639.07,2434.77 7638.49,2435.36C7530.79,2543.28 7422.87,2650.97 7315.06,2758.78C7314.79,2759.05 7313.24,2760.6 7310.64,2760.6C7308.05,2760.6 7306.49,2759.05 7306.22,2758.78Z" style="fill:rgb(255,123,172);"/>
        </g>
      <g transform="matrix(1,0,0,1,1051.5,207.235)">
            <path d="M7306.65,2837.12C7306.38,2836.85 7304.83,2835.3 7304.83,2832.7C7304.83,2830.11 7306.37,2828.56 7306.64,2828.29C7433.85,2700.85 7561.29,2573.64 7688.61,2446.32C7688.89,2446.05 7690.44,2444.49 7693.03,2444.49C7693.83,2444.49 7694.65,2444.64 7695.39,2444.95C7695.75,2445.1 7697.82,2445.95 7698.82,2448.38C7698.97,2448.73 7699.79,2450.74 7698.82,2453.09C7698.51,2453.85 7698.04,2454.57 7697.46,2455.15C7570.25,2582.59 7442.81,2709.8 7315.49,2837.12C7315.22,2837.39 7313.67,2838.94 7311.07,2838.94C7308.47,2838.94 7306.92,2837.39 7306.65,2837.12Z" style="fill:rgb(255,123,172);"/>
        </g>
      <g transform="matrix(1,0,0,1,1051.5,207.235)">
            <path d="M7307.33,2921.32C7307.06,2921.05 7305.51,2919.5 7305.51,2916.9C7305.51,2914.31 7307.05,2912.76 7307.32,2912.49C7455.67,2763.91 7604.26,2615.55 7752.73,2467.09C7752.99,2466.82 7754.55,2465.26 7757.14,2465.26C7757.94,2465.26 7758.76,2465.41 7759.5,2465.72C7761.93,2466.72 7762.78,2468.79 7762.93,2469.15C7763.07,2469.5 7763.9,2471.51 7762.93,2473.86C7762.62,2474.62 7762.15,2475.34 7761.57,2475.92C7613.22,2624.5 7464.64,2772.85 7316.17,2921.32C7315.9,2921.59 7314.34,2923.14 7311.75,2923.14C7309.15,2923.14 7307.6,2921.59 7307.33,2921.32Z" style="fill:rgb(255,123,172);"/>
        </g>
      <g transform="matrix(1,0,0,1,1051.5,207.235)">
            <path d="M7366.78,2937.32C7366.51,2937.05 7364.96,2935.49 7364.96,2932.9C7364.96,2930.3 7366.51,2928.75 7366.78,2928.48C7514.28,2780.74 7662.02,2633.24 7809.65,2485.61C7809.92,2485.34 7811.47,2483.79 7814.07,2483.79C7814.87,2483.79 7815.68,2483.94 7816.42,2484.24C7818.85,2485.24 7819.71,2487.32 7819.85,2487.68C7820.82,2490.03 7820,2492.04 7819.85,2492.39C7819.54,2493.15 7819.07,2493.86 7818.49,2494.44C7670.99,2642.18 7523.25,2789.69 7375.62,2937.32C7375.35,2937.59 7373.8,2939.14 7371.2,2939.14C7368.61,2939.14 7367.05,2937.59 7366.78,2937.32Z" style="fill:rgb(255,123,172);"/>
        </g>
      <g transform="matrix(1,0,0,1,1051.5,207.235)">
            <path d="M7459.64,2915.56C7459.37,2915.29 7457.82,2913.74 7457.82,2911.14C7457.82,2908.55 7459.36,2907 7459.63,2906.73C7594.44,2771.69 7729.49,2636.88 7864.41,2501.95C7864.69,2501.68 7866.24,2500.12 7868.84,2500.12C7869.63,2500.12 7870.45,2500.28 7871.19,2500.58C7871.55,2500.73 7873.62,2501.58 7874.62,2504.01C7875.59,2506.37 7874.77,2508.37 7874.62,2508.72C7874.31,2509.48 7873.84,2510.2 7873.26,2510.78C7738.45,2645.82 7603.4,2780.64 7468.48,2915.56C7468.21,2915.84 7466.65,2917.39 7464.06,2917.39C7461.46,2917.39 7459.91,2915.84 7459.64,2915.56Z" style="fill:rgb(255,123,172);"/>
        </g>
      <g transform="matrix(1,0,0,1,1051.5,207.235)">
            <path d="M7565.27,2888.33C7564.99,2888.05 7563.44,2886.5 7563.44,2883.91C7563.44,2881.31 7564.99,2879.76 7565.26,2879.49C7684.33,2760.19 7803.63,2641.12 7922.82,2521.93C7923.09,2521.66 7924.64,2520.11 7927.24,2520.11C7928.04,2520.11 7928.85,2520.26 7929.59,2520.57C7932.02,2521.57 7932.88,2523.64 7933.02,2524C7933.17,2524.35 7933.99,2526.35 7933.02,2528.71C7932.71,2529.47 7932.24,2530.18 7931.66,2530.77C7812.59,2650.07 7693.29,2769.14 7574.11,2888.33C7573.83,2888.6 7572.28,2890.15 7569.69,2890.15C7567.09,2890.15 7565.54,2888.6 7565.27,2888.33Z" style="fill:rgb(255,123,172);"/>
        </g>
      <g transform="matrix(1,0,0,1,1051.5,207.235)">
            <path d="M7669.63,2861.94C7669.36,2861.67 7667.8,2860.12 7667.8,2857.52C7667.8,2854.93 7669.35,2853.38 7669.62,2853.11C7773.61,2748.89 7877.83,2644.9 7981.93,2540.8C7982.2,2540.53 7983.75,2538.97 7986.35,2538.97C7987.15,2538.97 7987.97,2539.12 7988.7,2539.43C7991.14,2540.43 7991.99,2542.5 7992.14,2542.86C7993.11,2545.22 7992.28,2547.22 7992.14,2547.57C7991.82,2548.33 7991.36,2549.05 7990.78,2549.63C7886.79,2653.85 7782.57,2757.84 7678.47,2861.94C7678.19,2862.21 7676.64,2863.76 7674.05,2863.76C7671.45,2863.76 7669.9,2862.21 7669.63,2861.94Z" style="fill:rgb(255,123,172);"/>
        </g>
      <g transform="matrix(1,0,0,1,1051.5,207.235)">
            <path d="M7751.07,2842.59C7750.8,2842.32 7749.25,2840.76 7749.25,2838.17C7749.25,2835.58 7750.79,2834.03 7751.06,2833.76C7843.73,2740.85 7936.64,2648.18 8029.42,2555.4C8029.69,2555.13 8031.24,2553.58 8033.84,2553.58C8034.64,2553.58 8035.46,2553.73 8036.2,2554.03C8038.63,2555.03 8039.48,2557.1 8039.63,2557.46C8040.6,2559.82 8039.77,2561.82 8039.63,2562.17C8039.31,2562.93 8038.85,2563.65 8038.27,2564.23C7945.6,2657.13 7852.69,2749.8 7759.91,2842.59C7759.64,2842.86 7758.09,2844.41 7755.49,2844.41C7752.89,2844.41 7751.34,2842.86 7751.07,2842.59Z" style="fill:rgb(255,123,172);"/>
        </g>
      <g transform="matrix(1,0,0,1,1051.5,207.235)">
            <path d="M7852.26,2816.86C7851.99,2816.59 7850.44,2815.03 7850.44,2812.44C7850.44,2809.85 7851.98,2808.3 7852.25,2808.02C7930.28,2729.76 8008.55,2651.73 8086.69,2573.58C8086.96,2573.31 8088.52,2571.76 8091.11,2571.76C8091.91,2571.76 8092.73,2571.91 8093.47,2572.22C8093.83,2572.37 8095.9,2573.22 8096.9,2575.65C8097.04,2576 8097.87,2578 8096.9,2580.36C8096.59,2581.12 8096.12,2581.83 8095.54,2582.42C8017.51,2660.68 7939.25,2738.71 7861.1,2816.86C7860.83,2817.13 7859.28,2818.68 7856.68,2818.68C7854.08,2818.68 7852.53,2817.13 7852.26,2816.86Z" style="fill:rgb(255,123,172);"/>
        </g>
      <g transform="matrix(1,0,0,1,1051.5,207.235)">
            <path d="M7968.6,2788.41C7968.33,2788.13 7966.78,2786.58 7966.78,2783.99C7966.78,2781.4 7968.32,2779.84 7968.59,2779.57C8030.23,2717.71 8092.09,2656.08 8153.84,2594.33C8154.11,2594.06 8155.66,2592.51 8158.26,2592.51C8159.06,2592.51 8159.87,2592.66 8160.61,2592.96C8160.97,2593.11 8163.04,2593.96 8164.04,2596.39C8164.19,2596.74 8165.01,2598.75 8164.04,2601.1C8163.73,2601.86 8163.26,2602.58 8162.68,2603.16C8101.05,2665.02 8039.19,2726.66 7977.44,2788.41C7977.17,2788.68 7975.62,2790.23 7973.02,2790.23C7970.42,2790.23 7968.87,2788.68 7968.6,2788.41Z" style="fill:rgb(255,123,172);"/>
        </g>
      <g transform="matrix(1,0,0,1,1051.5,207.235)">
            <path d="M8056.05,2766.88C8055.78,2766.61 8054.23,2765.05 8054.23,2762.46C8054.23,2759.87 8055.77,2758.32 8056.04,2758.05C8105.19,2708.66 8154.57,2659.51 8203.84,2610.25C8204.11,2609.98 8205.66,2608.43 8208.26,2608.43C8209.06,2608.43 8209.87,2608.58 8210.61,2608.88C8213.04,2609.88 8213.9,2611.95 8214.05,2612.31C8214.19,2612.66 8215.01,2614.67 8214.05,2617.02C8213.73,2617.78 8213.26,2618.5 8212.68,2619.08C8163.53,2668.46 8114.15,2717.61 8064.89,2766.88C8064.62,2767.15 8063.07,2768.7 8060.47,2768.7C8057.87,2768.7 8056.32,2767.15 8056.05,2766.88Z" style="fill:rgb(255,123,172);"/>
        </g>
      <g transform="matrix(1,0,0,1,1051.5,207.235)">
            <path d="M8137.7,2747.04C8137.43,2746.77 8135.88,2745.22 8135.88,2742.62C8135.88,2740.04 8137.43,2738.48 8137.7,2738.21C8174.99,2700.69 8212.52,2663.39 8249.93,2625.98C8250.2,2625.71 8251.75,2624.15 8254.35,2624.15C8255.15,2624.15 8255.97,2624.31 8256.7,2624.61C8259.14,2625.61 8259.99,2627.68 8260.14,2628.04C8260.28,2628.39 8261.1,2630.4 8260.14,2632.75C8259,2635.51 8258.42,2635.16 8146.54,2747.04C8146.27,2747.31 8144.72,2748.87 8142.12,2748.87C8139.53,2748.87 8137.97,2747.31 8137.7,2747.04Z" style="fill:rgb(255,123,172);"/>
        </g>
      <g transform="matrix(1,0,0,1,1051.5,207.235)">
            <path d="M8234.45,2720.6C8234.18,2720.33 8232.63,2718.78 8232.63,2716.18C8232.63,2713.6 8234.18,2712.04 8234.45,2711.77C8257.98,2688.01 8281.74,2664.47 8305.39,2640.83C8305.66,2640.56 8307.21,2639.01 8309.81,2639.01C8310.61,2639.01 8311.42,2639.16 8312.16,2639.46C8314.6,2640.46 8315.45,2642.53 8315.6,2642.89C8315.74,2643.24 8316.57,2645.25 8315.6,2647.6C8315.28,2648.36 8314.82,2649.08 8314.24,2649.66C8290.7,2673.42 8266.94,2696.95 8243.29,2720.6C8243.02,2720.87 8241.47,2722.43 8238.87,2722.43C8236.28,2722.43 8234.73,2720.87 8234.45,2720.6Z" style="fill:rgb(255,123,172);"/>
        </g>
      <g transform="matrix(1,0,0,1,1051.5,207.235)">
            <path d="M8306.77,2703.88C8306.5,2703.61 8304.95,2702.05 8304.95,2699.46C8304.95,2699.08 8304.95,2696.89 8306.76,2695.04C8319.95,2681.64 8333.36,2668.45 8346.66,2655.15C8346.93,2654.88 8348.48,2653.33 8351.08,2653.33C8351.88,2653.33 8352.69,2653.48 8353.43,2653.78C8355.86,2654.78 8356.71,2656.86 8356.86,2657.22C8357.01,2657.56 8357.83,2659.57 8356.86,2661.92C8356.55,2662.68 8356.08,2663.4 8355.5,2663.98C8342.32,2677.39 8328.91,2690.58 8315.61,2703.88C8315.34,2704.15 8313.78,2705.7 8311.19,2705.7C8308.59,2705.7 8307.04,2704.15 8306.77,2703.88Z" style="fill:rgb(255,123,172);"/>
        </g>
      <g transform="matrix(1,0,0,1,1051.5,207.235)">
            <path d="M8375.15,2688.64C8374.88,2688.37 8373.33,2686.81 8373.33,2684.22C8373.33,2683.84 8373.33,2681.71 8375.15,2679.8C8379.14,2675.61 8383.33,2671.62 8387.42,2667.53C8387.69,2667.26 8389.25,2665.71 8391.84,2665.71C8392.64,2665.71 8393.46,2665.86 8394.2,2666.16C8396.63,2667.16 8397.48,2669.23 8397.63,2669.59C8398.6,2671.95 8397.77,2673.95 8397.63,2674.3C8397.32,2675.06 8396.84,2675.76 8396.27,2676.36C8392.28,2680.55 8388.09,2684.55 8383.99,2688.64C8383.72,2688.91 8382.17,2690.46 8379.57,2690.46C8376.98,2690.46 8375.42,2688.91 8375.15,2688.64Z" style="fill:rgb(255,123,172);"/>
        </g>
      <g transform="matrix(0.369491,-0.235755,0.169163,-1.08853,4075.17,5787.25)">
            <path d="M2302.11,1904.59L1995.68,2573.73" style="fill:none;stroke:rgb(255,102,0);stroke-width:12.37px;"/>
        </g>
      <g transform="matrix(0.369491,-0.235755,0.169163,-1.08853,5626.24,5787.25)">
            <path d="M5377.11,1841.34L1995.68,2573.73" style="fill:none;stroke:rgb(255,102,0);stroke-width:12.37px;"/>
        </g>
      <g transform="matrix(0.369491,-0.235755,0.169163,-1.08853,7181.19,5787.25)">
            <path d="M2302.11,1904.59L1995.68,2573.73" style="fill:none;stroke:rgb(255,102,0);stroke-width:12.37px;"/>
        </g>
      <g transform="matrix(0.369491,0.235755,0.169163,1.08853,4075.17,-100.458)">
            <path d="M5377.3,1841.06L1996.01,2573.38" style="fill:none;stroke:rgb(255,204,0);stroke-width:12.37px;"/>
        </g>
      <path d="M5252.75,2554.21C5252.48,2553.94 5250.93,2552.39 5250.93,2549.79C5250.93,2548.99 5251.08,2548.18 5251.39,2547.44C5251.7,2546.68 5252.18,2545.98 5252.75,2545.38C5255.78,2542.15 5259.02,2539.11 5262.15,2535.98C5262.42,2535.71 5263.97,2534.15 5266.57,2534.15C5267.37,2534.15 5268.18,2534.31 5268.92,2534.61C5269.28,2534.76 5271.35,2535.61 5272.36,2538.04C5272.5,2538.39 5273.32,2540.4 5272.36,2542.75C5272.04,2543.51 5271.56,2544.21 5270.99,2544.81C5267.96,2548.04 5264.73,2551.08 5261.59,2554.21C5261.32,2554.48 5259.77,2556.03 5257.17,2556.03C5254.58,2556.03 5253.02,2554.48 5252.75,2554.21Z" style="fill:rgb(255,123,172);"/>
      <path d="M5255.62,2593.95C5255.35,2593.68 5253.8,2592.13 5253.8,2589.53C5253.8,2589.15 5253.8,2586.97 5255.61,2585.12C5266.14,2574.37 5276.89,2563.84 5287.53,2553.21C5287.8,2552.94 5289.35,2551.38 5291.95,2551.38C5292.74,2551.38 5293.56,2551.53 5294.3,2551.84C5294.66,2551.99 5296.73,2552.84 5297.73,2555.27C5298.7,2557.62 5297.88,2559.63 5297.73,2559.98C5297.42,2560.74 5296.95,2561.45 5296.37,2562.04C5285.85,2572.79 5275.1,2583.31 5264.46,2593.95C5264.19,2594.22 5262.63,2595.78 5260.04,2595.78C5257.44,2595.78 5255.89,2594.22 5255.62,2593.95Z" style="fill:rgb(255,123,172);"/>
      <path d="M5253.27,2642.84C5253,2642.57 5251.45,2641.02 5251.45,2638.42C5251.45,2635.85 5253,2634.28 5253.27,2634.01C5274.59,2612.46 5296.13,2591.14 5317.57,2569.71C5317.84,2569.44 5319.39,2567.89 5321.99,2567.89C5322.79,2567.89 5323.6,2568.04 5324.34,2568.34C5326.77,2569.34 5327.63,2571.41 5327.77,2571.77C5328.74,2574.13 5327.92,2576.13 5327.77,2576.48C5327.46,2577.24 5326.99,2577.95 5326.41,2578.54C5305.09,2600.09 5283.55,2621.41 5262.11,2642.84C5261.84,2643.11 5260.29,2644.66 5257.69,2644.66C5255.1,2644.66 5253.54,2643.11 5253.27,2642.84Z" style="fill:rgb(255,123,172);"/>
      <path d="M5255.73,2692.26C5255.46,2691.99 5253.91,2690.44 5253.91,2687.84C5253.91,2685.26 5255.45,2683.7 5255.72,2683.43C5287.14,2651.78 5318.78,2620.37 5350.31,2588.84C5350.58,2588.57 5352.13,2587.02 5354.73,2587.02C5355.53,2587.02 5356.35,2587.17 5357.08,2587.47C5357.44,2587.62 5359.52,2588.47 5360.52,2590.9C5360.66,2591.25 5361.48,2593.26 5360.52,2595.61C5359.38,2598.38 5358.8,2598.03 5264.57,2692.26C5264.3,2692.53 5262.74,2694.08 5260.15,2694.08C5257.55,2694.08 5256,2692.53 5255.73,2692.26Z" style="fill:rgb(255,123,172);"/>
      <path d="M5252.85,2746.2C5252.58,2745.93 5251.03,2744.38 5251.03,2741.78C5251.03,2739.2 5252.58,2737.64 5252.85,2737.37C5296.22,2693.77 5339.82,2650.39 5383.31,2606.91C5383.58,2606.64 5385.13,2605.08 5387.73,2605.08C5388.53,2605.08 5389.35,2605.24 5390.08,2605.54C5392.52,2606.54 5393.37,2608.61 5393.52,2608.97C5393.66,2609.32 5394.48,2611.33 5393.52,2613.68C5393.2,2614.44 5392.74,2615.16 5392.16,2615.74C5348.78,2659.34 5305.18,2702.71 5261.69,2746.2C5261.42,2746.47 5259.87,2748.03 5257.27,2748.03C5254.68,2748.03 5253.12,2746.47 5252.85,2746.2Z" style="fill:rgb(255,123,172);"/>
      <path d="M5254.09,2802.83C5253.82,2802.56 5252.26,2801.01 5252.26,2798.41C5252.26,2795.82 5253.81,2794.27 5254.08,2794C5308.81,2739.04 5363.77,2684.32 5418.61,2629.47C5418.88,2629.2 5420.43,2627.65 5423.03,2627.65C5423.83,2627.65 5424.64,2627.8 5425.38,2628.11C5427.81,2629.11 5428.67,2631.18 5428.82,2631.54C5428.96,2631.89 5429.78,2633.89 5428.82,2636.25C5428.5,2637.01 5428.03,2637.72 5427.45,2638.3C5372.73,2693.26 5317.77,2747.99 5262.93,2802.83C5262.66,2803.1 5261.1,2804.66 5258.51,2804.66C5255.91,2804.66 5254.36,2803.1 5254.09,2802.83Z" style="fill:rgb(255,123,172);"/>
      <path d="M5253.27,2861.47C5252.99,2861.2 5251.44,2859.65 5251.44,2857.05C5251.44,2854.46 5252.99,2852.91 5253.26,2852.64C5321.54,2784.12 5390.06,2715.84 5458.46,2647.44C5458.73,2647.17 5460.28,2645.62 5462.88,2645.62C5463.68,2645.62 5464.49,2645.77 5465.23,2646.07C5467.66,2647.07 5468.52,2649.14 5468.66,2649.5C5468.81,2649.85 5469.63,2651.86 5468.66,2654.21C5468.35,2654.97 5467.88,2655.69 5467.3,2656.27C5399.02,2724.78 5330.5,2793.07 5262.1,2861.47C5261.83,2861.74 5260.28,2863.29 5257.68,2863.29C5255.09,2863.29 5253.53,2861.74 5253.27,2861.47Z" style="fill:rgb(255,123,172);"/>
      <path d="M5252.87,2930.2C5252.6,2929.93 5251.05,2928.38 5251.05,2925.78C5251.05,2923.19 5252.6,2921.64 5252.87,2921.37C5335.51,2838.5 5418.38,2755.86 5501.13,2673.1C5501.4,2672.83 5502.95,2671.28 5505.55,2671.28C5506.35,2671.28 5507.17,2671.43 5507.9,2671.74C5510.34,2672.74 5511.19,2674.81 5511.34,2675.17C5512.31,2677.52 5511.48,2679.53 5511.34,2679.88C5511.02,2680.64 5510.56,2681.35 5509.98,2681.94C5427.34,2764.81 5344.47,2847.45 5261.71,2930.2C5261.44,2930.47 5259.89,2932.02 5257.29,2932.02C5254.7,2932.02 5253.14,2930.47 5252.87,2930.2Z" style="fill:rgb(255,123,172);"/>
      <path d="M5253.79,2994.73C5253.52,2994.46 5251.97,2992.91 5251.97,2990.31C5251.97,2987.72 5253.51,2986.17 5253.78,2985.9C5349.71,2889.74 5445.88,2793.81 5541.92,2697.76C5542.19,2697.49 5543.74,2695.94 5546.34,2695.94C5547.14,2695.94 5547.96,2696.09 5548.69,2696.4C5551.13,2697.4 5551.98,2699.47 5552.13,2699.83C5552.27,2700.18 5553.1,2702.18 5552.13,2704.54C5551.81,2705.3 5551.35,2706.01 5550.77,2706.6C5454.84,2802.76 5358.68,2898.69 5262.63,2994.73C5262.36,2995 5260.81,2996.56 5258.21,2996.56C5255.61,2996.56 5254.06,2995 5253.79,2994.73Z" style="fill:rgb(255,123,172);"/>
      <path d="M5253.95,3071.05C5253.69,3070.78 5252.13,3069.22 5252.13,3066.63C5252.13,3064.03 5253.68,3062.49 5253.95,3062.22C5365.46,2950.47 5477.2,2838.96 5588.83,2727.34C5589.1,2727.07 5590.65,2725.51 5593.25,2725.51C5594.05,2725.51 5594.86,2725.66 5595.6,2725.97C5595.96,2726.12 5598.03,2726.97 5599.03,2729.4C5600,2731.76 5599.18,2733.76 5599.03,2734.11C5598.72,2734.87 5598.25,2735.59 5597.67,2736.17C5486.16,2847.91 5374.42,2959.42 5262.79,3071.05C5262.52,3071.32 5260.97,3072.87 5258.38,3072.87C5255.78,3072.87 5254.23,3071.32 5253.95,3071.05Z" style="fill:rgb(255,123,172);"/>
      <path d="M5254.13,3147.12C5253.86,3146.85 5252.31,3145.29 5252.31,3142.7C5252.31,3140.1 5253.85,3138.55 5254.12,3138.28C5381.75,3010.42 5509.62,2882.79 5637.36,2755.04C5637.63,2754.77 5639.19,2753.22 5641.78,2753.22C5642.58,2753.22 5643.4,2753.37 5644.14,2753.68C5646.57,2754.68 5647.42,2756.75 5647.57,2757.11C5647.71,2757.46 5648.54,2759.46 5647.57,2761.82C5647.26,2762.58 5646.79,2763.29 5646.21,2763.88C5518.58,2891.74 5390.72,3019.37 5262.97,3147.12C5262.7,3147.39 5261.15,3148.94 5258.55,3148.94C5255.95,3148.94 5254.4,3147.39 5254.13,3147.12Z" style="fill:rgb(255,123,172);"/>
      <path d="M5299.75,3167.26C5299.48,3166.99 5297.93,3165.44 5297.93,3162.84C5297.93,3160.25 5299.47,3158.7 5299.74,3158.43C5426.83,3031.1 5554.16,2904.01 5681.37,2776.8C5681.64,2776.53 5683.19,2774.98 5685.79,2774.98C5686.59,2774.98 5687.4,2775.13 5688.14,2775.43C5690.57,2776.43 5691.43,2778.51 5691.57,2778.87C5691.72,2779.22 5692.54,2781.22 5691.57,2783.58C5691.26,2784.34 5690.79,2785.05 5690.21,2785.63C5563.12,2912.96 5435.8,3040.05 5308.59,3167.26C5308.32,3167.53 5306.76,3169.08 5304.17,3169.08C5301.57,3169.08 5300.02,3167.53 5299.75,3167.26Z" style="fill:rgb(255,123,172);"/>
      <path d="M5369.46,3167.84C5369.19,3167.57 5367.64,3166.02 5367.64,3163.42C5367.64,3160.83 5369.19,3159.28 5369.45,3159.01C5487.93,3040.31 5606.63,2921.84 5725.22,2803.25C5725.49,2802.98 5727.04,2801.43 5729.64,2801.43C5730.44,2801.43 5731.25,2801.58 5731.99,2801.88C5732.35,2802.03 5734.42,2802.88 5735.42,2805.31C5736.39,2807.67 5735.57,2809.67 5735.42,2810.02C5735.11,2810.78 5734.64,2811.5 5734.06,2812.08C5615.59,2930.78 5496.89,3049.25 5378.3,3167.84C5378.03,3168.11 5376.48,3169.66 5373.88,3169.66C5371.28,3169.66 5369.73,3168.11 5369.46,3167.84Z" style="fill:rgb(255,123,172);"/>
      <path d="M5448.41,3166.4C5448.14,3166.13 5446.58,3164.58 5446.58,3161.98C5446.58,3159.39 5448.13,3157.84 5448.4,3157.57C5556.91,3048.83 5665.65,2940.32 5774.27,2831.7C5774.54,2831.43 5776.09,2829.88 5778.69,2829.88C5779.49,2829.88 5780.3,2830.03 5781.04,2830.33C5783.47,2831.33 5784.33,2833.4 5784.48,2833.76C5784.62,2834.11 5785.44,2836.12 5784.48,2838.47C5784.16,2839.23 5783.69,2839.95 5783.11,2840.53C5674.61,2949.27 5565.87,3057.78 5457.24,3166.4C5456.97,3166.67 5455.42,3168.22 5452.82,3168.22C5450.23,3168.22 5448.68,3166.67 5448.41,3166.4Z" style="fill:rgb(255,123,172);"/>
      <path d="M5521.93,3168.01C5521.66,3167.74 5520.11,3166.18 5520.11,3163.59C5520.11,3160.99 5521.65,3159.44 5521.92,3159.17C5621.15,3059.71 5720.61,2960.49 5819.95,2861.14C5820.23,2860.87 5821.78,2859.32 5824.37,2859.32C5825.17,2859.32 5825.99,2859.47 5826.73,2859.78C5827.09,2859.92 5829.16,2860.78 5830.16,2863.21C5830.3,2863.56 5831.13,2865.56 5830.16,2867.92C5829.85,2868.68 5829.38,2869.39 5828.8,2869.97C5729.57,2969.43 5630.11,3068.66 5530.77,3168.01C5530.5,3168.28 5528.95,3169.83 5526.35,3169.83C5523.75,3169.83 5522.2,3168.28 5521.93,3168.01Z" style="fill:rgb(255,123,172);"/>
      <path d="M5591.3,3167.23C5591.03,3166.96 5589.47,3165.41 5589.47,3162.82C5589.47,3160.22 5591.02,3158.67 5591.29,3158.4C5682.39,3067.07 5773.73,2975.97 5864.94,2884.75C5865.21,2884.48 5866.77,2882.93 5869.36,2882.93C5870.16,2882.93 5870.98,2883.08 5871.72,2883.38C5874.15,2884.38 5875,2886.45 5875.15,2886.81C5876.12,2889.17 5875.29,2891.17 5875.15,2891.52C5874.84,2892.28 5874.37,2893 5873.79,2893.58C5782.69,2984.91 5691.35,3076.02 5600.13,3167.23C5599.86,3167.51 5598.31,3169.06 5595.72,3169.06C5593.12,3169.06 5591.57,3167.51 5591.3,3167.23Z" style="fill:rgb(255,123,172);"/>
      <path d="M5667.39,3165.41C5667.12,3165.14 5665.57,3163.58 5665.57,3160.99C5665.57,3158.4 5667.11,3156.85 5667.38,3156.58C5749.18,3074.55 5831.21,2992.75 5913.12,2910.84C5913.39,2910.57 5914.94,2909.02 5917.54,2909.02C5918.34,2909.02 5919.15,2909.17 5919.89,2909.47C5922.32,2910.47 5923.18,2912.55 5923.32,2912.9C5923.47,2913.25 5924.29,2915.26 5923.32,2917.61C5923.01,2918.37 5922.54,2919.09 5921.96,2919.67C5840.17,3001.7 5758.14,3083.49 5676.23,3165.41C5675.96,3165.68 5674.4,3167.23 5671.81,3167.23C5669.21,3167.23 5667.66,3165.68 5667.39,3165.41Z" style="fill:rgb(255,123,172);"/>
      <path d="M5734.32,3166.87C5734.05,3166.6 5732.49,3165.04 5732.49,3162.45C5732.49,3159.86 5734.04,3158.31 5734.31,3158.04C5807.56,3084.56 5881.03,3011.32 5954.39,2937.96C5954.66,2937.68 5956.21,2936.13 5958.81,2936.13C5959.61,2936.13 5960.43,2936.28 5961.16,2936.59C5961.52,2936.74 5963.6,2937.59 5964.6,2940.02C5965.57,2942.38 5964.74,2944.38 5964.6,2944.73C5964.28,2945.49 5963.82,2946.2 5963.24,2946.79C5889.99,3020.26 5816.52,3093.51 5743.16,3166.87C5742.89,3167.14 5741.33,3168.69 5738.74,3168.69C5736.14,3168.69 5734.59,3167.14 5734.32,3166.87Z" style="fill:rgb(255,123,172);"/>
      <path d="M5815.48,3166.61C5815.21,3166.34 5813.65,3164.78 5813.65,3162.19C5813.65,3159.6 5815.2,3158.05 5815.47,3157.77C5878.77,3094.25 5942.29,3030.95 6005.7,2967.54C6005.97,2967.27 6007.53,2965.72 6010.12,2965.72C6010.92,2965.72 6011.74,2965.87 6012.48,2966.17C6012.84,2966.32 6014.91,2967.18 6015.91,2969.61C6016.88,2971.96 6016.05,2973.97 6015.91,2974.32C6015.6,2975.08 6015.13,2975.79 6014.55,2976.37C5951.25,3039.9 5887.73,3103.2 5824.32,3166.61C5824.05,3166.88 5822.49,3168.43 5819.9,3168.43C5817.3,3168.43 5815.75,3166.88 5815.48,3166.61Z" style="fill:rgb(255,123,172);"/>
      <path d="M5883.73,3167.51C5883.46,3167.24 5881.91,3165.69 5881.91,3163.1C5881.91,3160.51 5883.46,3158.95 5883.73,3158.68C5939.02,3103.16 5994.54,3047.87 6049.94,2992.47C6050.21,2992.2 6051.77,2990.64 6054.36,2990.64C6055.16,2990.64 6055.98,2990.8 6056.72,2991.1C6057.08,2991.25 6059.15,2992.1 6060.15,2994.53C6060.29,2994.88 6061.12,2996.89 6060.15,2999.24C6059.84,3000 6059.37,3000.72 6058.79,3001.3C6003.5,3056.82 5947.98,3112.11 5892.57,3167.51C5892.3,3167.78 5890.75,3169.34 5888.15,3169.34C5885.56,3169.34 5884.01,3167.78 5883.73,3167.51Z" style="fill:rgb(255,123,172);"/>
      <path d="M5943,3168.58C5942.73,3168.31 5941.18,3166.76 5941.18,3164.16C5941.18,3161.57 5942.72,3160.02 5942.99,3159.75C5992.04,3110.47 6041.32,3061.42 6090.49,3012.25C6090.76,3011.98 6092.31,3010.43 6094.91,3010.43C6095.71,3010.43 6096.52,3010.58 6097.26,3010.89C6097.62,3011.03 6099.69,3011.89 6100.69,3014.32C6101.66,3016.67 6100.84,3018.68 6100.69,3019.03C6100.38,3019.79 6099.91,3020.5 6099.34,3021.08C6050.28,3070.36 6001,3119.41 5951.84,3168.58C5951.57,3168.85 5950.02,3170.4 5947.42,3170.4C5944.82,3170.4 5943.27,3168.85 5943,3168.58Z" style="fill:rgb(255,123,172);"/>
      <path d="M6000.21,3167.47C5999.94,3167.2 5998.39,3165.65 5998.39,3163.05C5998.39,3160.47 5999.94,3158.91 6000.2,3158.64C6041.76,3116.85 6083.55,3075.3 6125.22,3033.63C6125.49,3033.36 6127.04,3031.8 6129.64,3031.8C6130.44,3031.8 6131.25,3031.95 6131.99,3032.26C6134.42,3033.26 6135.28,3035.33 6135.42,3035.69C6136.39,3038.05 6135.57,3040.05 6135.42,3040.4C6135.11,3041.16 6134.64,3041.88 6134.06,3042.46C6092.51,3084.24 6050.72,3125.8 6009.05,3167.47C6008.78,3167.74 6007.23,3169.29 6004.63,3169.29C6002.03,3169.29 6000.48,3167.74 6000.21,3167.47Z" style="fill:rgb(255,123,172);"/>
      <path d="M6067.27,3166.2C6067,3165.93 6065.45,3164.37 6065.45,3161.78C6065.45,3159.19 6067,3157.64 6067.27,3157.37C6100.44,3123.96 6133.85,3090.78 6167.14,3057.49C6167.41,3057.22 6168.96,3055.67 6171.56,3055.67C6172.36,3055.67 6173.17,3055.82 6173.91,3056.13C6174.27,3056.28 6176.34,3057.13 6177.34,3059.56C6177.49,3059.91 6178.31,3061.91 6177.34,3064.27C6176.21,3067.03 6175.63,3066.68 6076.11,3166.2C6075.84,3166.47 6074.29,3168.02 6071.69,3168.02C6069.1,3168.02 6067.55,3166.47 6067.27,3166.2Z" style="fill:rgb(255,123,172);"/>
      <path d="M6132.1,3164.59C6131.83,3164.32 6130.28,3162.77 6130.28,3160.17C6130.28,3157.59 6131.82,3156.03 6132.09,3155.76C6156.29,3131.33 6180.72,3107.13 6205.03,3082.82C6205.3,3082.55 6206.85,3081 6209.45,3081C6210.25,3081 6211.06,3081.15 6211.8,3081.45C6214.24,3082.45 6215.09,3084.53 6215.24,3084.88C6215.38,3085.23 6216.2,3087.24 6215.24,3089.59C6214.09,3092.37 6213.51,3092.01 6140.94,3164.59C6140.67,3164.86 6139.11,3166.41 6136.52,3166.41C6133.92,3166.41 6132.37,3164.86 6132.1,3164.59Z" style="fill:rgb(255,123,172);"/>
      <path d="M6195.63,3168.72C6195.36,3168.45 6193.8,3166.9 6193.8,3164.3C6193.8,3163.92 6193.8,3161.73 6195.62,3159.89C6213.38,3141.9 6231.37,3124.14 6249.25,3106.26C6249.52,3105.99 6251.07,3104.44 6253.67,3104.44C6254.47,3104.44 6255.28,3104.59 6256.03,3104.89C6258.46,3105.89 6259.31,3107.97 6259.46,3108.33C6259.6,3108.67 6260.43,3110.68 6259.46,3113.03C6259.14,3113.8 6258.67,3114.51 6258.1,3115.09C6240.33,3133.08 6222.34,3150.85 6204.47,3168.72C6204.19,3168.99 6202.64,3170.55 6200.05,3170.55C6197.45,3170.55 6195.9,3168.99 6195.63,3168.72Z" style="fill:rgb(255,123,172);"/>
      <path d="M6249.29,3166.94C6249.02,3166.67 6247.47,3165.12 6247.47,3162.52C6247.47,3162.14 6247.47,3159.96 6249.28,3158.11C6260.53,3146.64 6272,3135.39 6283.36,3124.03C6283.63,3123.76 6285.18,3122.21 6287.78,3122.21C6288.58,3122.21 6289.4,3122.36 6290.13,3122.66C6290.49,3122.81 6292.57,3123.66 6293.57,3126.1C6293.71,3126.45 6294.53,3128.45 6293.57,3130.81C6293.25,3131.57 6292.78,3132.28 6292.21,3132.86C6280.96,3144.33 6269.49,3155.58 6258.13,3166.94C6257.86,3167.21 6256.31,3168.76 6253.71,3168.76C6251.11,3168.76 6249.56,3167.21 6249.29,3166.94Z" style="fill:rgb(255,123,172);"/>
      <path d="M6302.37,3168.32C6302.1,3168.05 6300.54,3166.49 6300.54,3163.9C6300.54,3163.51 6300.54,3161.38 6302.36,3159.48C6306.95,3154.68 6311.75,3150.09 6316.45,3145.39C6316.72,3145.12 6318.27,3143.57 6320.87,3143.57C6321.67,3143.57 6322.49,3143.72 6323.22,3144.03C6325.66,3145.03 6326.51,3147.1 6326.66,3147.46C6326.8,3147.81 6327.62,3149.81 6326.66,3152.17C6326.34,3152.93 6325.86,3153.63 6325.3,3154.22C6320.7,3159.02 6315.9,3163.62 6311.2,3168.32C6310.93,3168.59 6309.38,3170.14 6306.78,3170.14C6304.19,3170.14 6302.64,3168.59 6302.37,3168.32Z" style="fill:rgb(255,123,172);"/>
      <path d="M6829.09,2542.88C6828.82,2542.61 6827.27,2541.05 6827.27,2538.46C6827.27,2538.08 6827.27,2535.96 6829.08,2534.05C6832.64,2530.29 6836.4,2526.73 6840.05,2523.07C6840.32,2522.8 6841.88,2521.25 6844.47,2521.25C6845.27,2521.25 6846.09,2521.4 6846.83,2521.71C6849.26,2522.71 6850.11,2524.78 6850.26,2525.14C6850.4,2525.49 6851.23,2527.49 6850.26,2529.85C6849.95,2530.61 6849.46,2531.31 6848.9,2531.91C6845.34,2535.66 6841.59,2539.22 6837.93,2542.88C6837.66,2543.15 6836.11,2544.7 6833.51,2544.7C6830.91,2544.7 6829.36,2543.15 6829.09,2542.88Z" style="fill:rgb(255,123,172);"/>
      <path d="M6850.6,2565.02C6850.33,2564.75 6848.78,2563.2 6848.78,2560.6C6848.78,2560.22 6848.78,2558.04 6850.59,2556.19C6861.37,2545.19 6872.37,2534.41 6883.27,2523.51C6883.54,2523.24 6885.09,2521.69 6887.69,2521.69C6888.48,2521.69 6889.3,2521.84 6890.04,2522.15C6890.4,2522.3 6892.47,2523.15 6893.47,2525.58C6894.44,2527.93 6893.61,2529.94 6893.47,2530.29C6893.16,2531.05 6892.69,2531.76 6892.11,2532.35C6881.33,2543.35 6870.33,2554.13 6859.44,2565.02C6859.17,2565.29 6857.62,2566.84 6855.02,2566.84C6852.42,2566.84 6850.87,2565.29 6850.6,2565.02Z" style="fill:rgb(255,123,172);"/>
      <path d="M6870.59,2588.16C6870.32,2587.89 6868.77,2586.34 6868.77,2583.74C6868.77,2581.17 6870.31,2579.6 6870.58,2579.33C6889.24,2560.45 6908.13,2541.78 6926.9,2523.01C6927.18,2522.74 6928.73,2521.19 6931.32,2521.19C6932.12,2521.19 6932.94,2521.34 6933.68,2521.64C6934.04,2521.79 6936.11,2522.64 6937.11,2525.08C6937.25,2525.42 6938.08,2527.43 6937.11,2529.78C6936.8,2530.55 6936.33,2531.26 6935.75,2531.84C6917.09,2550.73 6898.2,2569.39 6879.43,2588.16C6879.16,2588.43 6877.61,2589.99 6875.01,2589.99C6872.41,2589.99 6870.86,2588.43 6870.59,2588.16Z" style="fill:rgb(255,123,172);"/>
      <path d="M6893.83,2614.44C6893.56,2614.17 6892.01,2612.62 6892.01,2610.02C6892.01,2607.44 6893.56,2605.88 6893.82,2605.61C6921.75,2577.46 6949.9,2549.54 6977.93,2521.5C6978.2,2521.23 6979.75,2519.68 6982.35,2519.68C6983.15,2519.68 6983.97,2519.83 6984.7,2520.14C6985.06,2520.28 6987.14,2521.14 6988.14,2523.57C6988.28,2523.92 6989.11,2525.92 6988.14,2528.28C6987,2531.05 6986.42,2530.69 6902.67,2614.44C6902.4,2614.71 6900.85,2616.26 6898.25,2616.26C6895.65,2616.26 6894.1,2614.71 6893.83,2614.44Z" style="fill:rgb(255,123,172);"/>
      <path d="M6917.47,2642.62C6917.2,2642.35 6915.64,2640.8 6915.64,2638.2C6915.64,2635.61 6917.19,2634.06 6917.46,2633.79C6955.19,2595.82 6993.16,2558.09 7031.01,2520.24C7031.28,2519.97 7032.83,2518.41 7035.43,2518.41C7036.23,2518.41 7037.05,2518.56 7037.78,2518.87C7038.14,2519.02 7040.22,2519.87 7041.22,2522.3C7042.19,2524.66 7041.36,2526.66 7041.22,2527.01C7040.08,2529.77 7039.5,2529.42 6926.31,2642.62C6926.03,2642.89 6924.48,2644.44 6921.89,2644.44C6919.29,2644.44 6917.74,2642.89 6917.47,2642.62Z" style="fill:rgb(255,123,172);"/>
      <path d="M6945.42,2671.11C6945.15,2670.84 6943.6,2669.29 6943.6,2666.69C6943.6,2664.1 6945.14,2662.55 6945.41,2662.28C6992.08,2615.38 7038.98,2568.71 7085.76,2521.93C7086.03,2521.66 7087.59,2520.11 7090.18,2520.11C7090.98,2520.11 7091.8,2520.26 7092.54,2520.56C7094.97,2521.56 7095.82,2523.63 7095.97,2523.99C7096.11,2524.34 7096.94,2526.35 7095.97,2528.7C7095.65,2529.46 7095.19,2530.18 7094.61,2530.76C7047.94,2577.66 7001.04,2624.33 6954.26,2671.11C6953.99,2671.38 6952.43,2672.93 6949.84,2672.93C6947.24,2672.93 6945.69,2671.38 6945.42,2671.11Z" style="fill:rgb(255,123,172);"/>
      <path d="M6974.48,2702.76C6974.21,2702.49 6972.66,2700.93 6972.66,2698.34C6972.66,2695.75 6974.21,2694.2 6974.48,2693.93C7031.73,2636.44 7089.21,2579.19 7146.58,2521.82C7146.85,2521.55 7148.4,2520 7151,2520C7151.8,2520 7152.61,2520.15 7153.35,2520.45C7155.78,2521.46 7156.64,2523.53 7156.78,2523.89C7157.75,2526.24 7156.93,2528.25 7156.78,2528.6C7156.47,2529.36 7156.01,2530.07 7155.43,2530.65C7098.17,2588.14 7040.69,2645.39 6983.32,2702.76C6983.05,2703.03 6981.5,2704.58 6978.9,2704.58C6976.31,2704.58 6974.75,2703.03 6974.48,2702.76Z" style="fill:rgb(255,123,172);"/>
      <path d="M7002.43,2735.16C7002.16,2734.89 7000.61,2733.33 7000.61,2730.74C7000.61,2728.14 7002.15,2726.59 7002.42,2726.32C7070.49,2658.02 7138.79,2589.95 7206.98,2521.77C7207.25,2521.5 7208.8,2519.95 7211.4,2519.95C7212.2,2519.95 7213.01,2520.1 7213.75,2520.4C7214.11,2520.55 7216.18,2521.4 7217.18,2523.84C7217.33,2524.18 7218.15,2526.19 7217.18,2528.54C7216.87,2529.3 7216.4,2530.02 7215.82,2530.6C7147.75,2598.9 7079.45,2666.97 7011.27,2735.16C7011,2735.43 7009.45,2736.98 7006.85,2736.98C7004.25,2736.98 7002.7,2735.43 7002.43,2735.16Z" style="fill:rgb(255,123,172);"/>
      <path d="M7035.94,2772.35C7035.68,2772.08 7034.12,2770.52 7034.12,2767.93C7034.12,2765.34 7035.67,2763.78 7035.94,2763.51C7116.65,2682.57 7197.6,2601.85 7278.43,2521.02C7278.7,2520.75 7280.25,2519.2 7282.85,2519.2C7283.65,2519.2 7284.46,2519.35 7285.2,2519.66C7287.64,2520.66 7288.49,2522.73 7288.64,2523.09C7289.6,2525.44 7288.78,2527.45 7288.64,2527.8C7288.32,2528.56 7287.86,2529.27 7287.28,2529.86C7206.56,2610.8 7125.61,2691.52 7044.78,2772.35C7044.51,2772.62 7042.96,2774.17 7040.36,2774.17C7037.77,2774.17 7036.22,2772.62 7035.94,2772.35Z" style="fill:rgb(255,123,172);"/>
      <path d="M7066.55,2806.69C7066.28,2806.42 7064.72,2804.87 7064.72,2802.27C7064.72,2799.68 7066.27,2798.13 7066.54,2797.86C7158.68,2705.49 7251.06,2613.34 7343.32,2521.08C7343.59,2520.81 7345.14,2519.26 7347.74,2519.26C7348.54,2519.26 7349.35,2519.41 7350.09,2519.71C7350.45,2519.86 7352.52,2520.72 7353.52,2523.15C7354.49,2525.5 7353.67,2527.51 7353.52,2527.86C7353.21,2528.62 7352.74,2529.33 7352.16,2529.91C7260.02,2622.29 7167.65,2714.43 7075.39,2806.69C7075.11,2806.96 7073.56,2808.51 7070.97,2808.51C7068.37,2808.51 7066.82,2806.96 7066.55,2806.69Z" style="fill:rgb(255,123,172);"/>
      <path d="M7103.07,2844.81C7102.8,2844.54 7101.25,2842.99 7101.25,2840.39C7101.25,2837.8 7102.8,2836.25 7103.07,2835.98C7207.63,2731.18 7312.43,2626.62 7417.11,2521.94C7417.38,2521.67 7418.93,2520.11 7421.53,2520.11C7422.33,2520.11 7423.14,2520.26 7423.88,2520.57C7426.31,2521.57 7427.17,2523.64 7427.32,2524C7428.28,2526.36 7427.46,2528.36 7427.32,2528.71C7427,2529.47 7426.53,2530.19 7425.95,2530.77C7321.39,2635.57 7216.59,2740.13 7111.91,2844.81C7111.64,2845.08 7110.09,2846.63 7107.49,2846.63C7104.9,2846.63 7103.34,2845.08 7103.07,2844.81Z" style="fill:rgb(255,123,172);"/>
      <path d="M7134.2,2881.7C7133.93,2881.43 7132.38,2879.88 7132.38,2877.28C7132.38,2874.69 7133.92,2873.14 7134.19,2872.87C7251.09,2755.74 7368.21,2638.85 7485.23,2521.84C7485.49,2521.57 7487.05,2520.02 7489.64,2520.02C7490.44,2520.02 7491.26,2520.17 7492,2520.47C7494.43,2521.47 7495.28,2523.55 7495.43,2523.9C7495.57,2524.25 7496.4,2526.26 7495.43,2528.61C7495.12,2529.37 7494.65,2530.09 7494.07,2530.67C7377.18,2647.8 7260.05,2764.69 7143.04,2881.7C7142.77,2881.97 7141.22,2883.53 7138.62,2883.53C7136.02,2883.53 7134.47,2881.97 7134.2,2881.7Z" style="fill:rgb(255,123,172);"/>
      <path d="M7161.15,2912.46C7160.87,2912.19 7159.32,2910.64 7159.32,2908.04C7159.32,2905.45 7160.87,2903.9 7161.14,2903.63C7289.14,2775.39 7417.37,2647.39 7545.49,2519.27C7545.76,2519 7547.32,2517.45 7549.91,2517.45C7550.71,2517.45 7551.53,2517.6 7552.27,2517.91C7554.7,2518.91 7555.55,2520.98 7555.7,2521.34C7555.84,2521.68 7556.67,2523.69 7555.7,2526.05C7555.39,2526.81 7554.92,2527.52 7554.34,2528.1C7426.34,2656.34 7298.1,2784.34 7169.98,2912.46C7169.71,2912.73 7168.16,2914.28 7165.56,2914.28C7162.97,2914.28 7161.41,2912.73 7161.15,2912.46Z" style="fill:rgb(255,123,172);"/>
      <path d="M7193.28,2946.89C7193.01,2946.61 7191.46,2945.06 7191.46,2942.47C7191.46,2939.87 7193,2938.32 7193.27,2938.05C7332.21,2798.89 7471.37,2659.95 7610.42,2520.9C7610.69,2520.63 7612.25,2519.08 7614.84,2519.08C7615.64,2519.08 7616.46,2519.23 7617.2,2519.54C7617.56,2519.68 7619.63,2520.54 7620.63,2522.97C7621.6,2525.32 7620.77,2527.33 7620.63,2527.68C7620.32,2528.44 7619.85,2529.15 7619.27,2529.74C7480.34,2668.9 7341.17,2807.84 7202.12,2946.89C7201.85,2947.16 7200.3,2948.71 7197.7,2948.71C7195.1,2948.71 7193.55,2947.16 7193.28,2946.89Z" style="fill:rgb(255,123,172);"/>
      <path d="M7225.47,2984.82C7225.2,2984.55 7223.65,2983 7223.65,2980.4C7223.65,2977.81 7225.2,2976.26 7225.47,2975.99C7376.91,2824.32 7528.58,2672.87 7680.14,2521.32C7680.41,2521.05 7681.96,2519.49 7684.56,2519.49C7685.36,2519.49 7686.17,2519.65 7686.91,2519.95C7687.27,2520.1 7689.34,2520.95 7690.34,2523.38C7690.49,2523.73 7691.31,2525.74 7690.34,2528.09C7690.03,2528.85 7689.56,2529.57 7688.98,2530.15C7537.54,2681.82 7385.87,2833.26 7234.31,2984.82C7234.04,2985.09 7232.49,2986.64 7229.89,2986.64C7227.3,2986.64 7225.74,2985.09 7225.47,2984.82Z" style="fill:rgb(255,123,172);"/>
      <path d="M7257.41,3018.56C7257.14,3018.29 7255.59,3016.74 7255.59,3014.14C7255.59,3011.55 7257.14,3010 7257.41,3009.73C7420.73,2846.17 7584.28,2682.85 7747.72,2519.41C7747.99,2519.14 7749.55,2517.59 7752.14,2517.59C7752.94,2517.59 7753.76,2517.74 7754.5,2518.04C7754.86,2518.19 7756.93,2519.04 7757.93,2521.48C7758.9,2523.83 7758.07,2525.84 7757.93,2526.18C7757.62,2526.95 7757.15,2527.66 7756.57,2528.24C7593.25,2691.8 7429.69,2855.12 7266.25,3018.56C7265.98,3018.83 7264.43,3020.38 7261.83,3020.38C7259.24,3020.38 7257.69,3018.83 7257.41,3018.56Z" style="fill:rgb(255,123,172);"/>
      <path d="M7290.27,3054.6C7290,3054.33 7288.45,3052.77 7288.45,3050.18C7288.45,3047.58 7289.99,3046.03 7290.26,3045.76C7464.36,2871.44 7638.68,2697.35 7812.89,2523.14C7813.16,2522.87 7814.71,2521.32 7817.31,2521.32C7818.11,2521.32 7818.92,2521.47 7819.66,2521.77C7822.09,2522.77 7822.95,2524.84 7823.1,2525.2C7823.24,2525.55 7824.06,2527.56 7823.1,2529.91C7822.78,2530.67 7822.32,2531.39 7821.74,2531.97C7647.64,2706.3 7473.32,2880.39 7299.11,3054.6C7298.84,3054.87 7297.28,3056.42 7294.69,3056.42C7292.09,3056.42 7290.54,3054.87 7290.27,3054.6Z" style="fill:rgb(255,123,172);"/>
      <path d="M7321.29,3092.03C7321.02,3091.76 7319.46,3090.21 7319.46,3087.61C7319.46,3085.01 7321.01,3083.47 7321.28,3083.2C7508.27,2895.98 7695.49,2708.99 7882.59,2521.88C7882.86,2521.61 7884.41,2520.06 7887.01,2520.06C7887.81,2520.06 7888.63,2520.21 7889.37,2520.52C7891.8,2521.52 7892.65,2523.59 7892.8,2523.95C7892.94,2524.3 7893.77,2526.3 7892.8,2528.66C7892.49,2529.42 7892.02,2530.13 7891.44,2530.72C7704.45,2717.94 7517.23,2904.92 7330.12,3092.03C7329.85,3092.3 7328.3,3093.85 7325.7,3093.85C7323.11,3093.85 7321.56,3092.3 7321.29,3092.03Z" style="fill:rgb(255,123,172);"/>
      <path d="M7352.51,3122.3C7352.23,3122.03 7350.66,3120.49 7350.64,3117.9C7350.61,3115.31 7352.15,3113.74 7352.41,3113.47C7476.54,2986.65 7600.91,2860.05 7725.15,2733.35C7725.42,2733.08 7726.96,2731.51 7729.56,2731.48C7730.36,2731.47 7731.17,2731.62 7731.91,2731.91C7732.28,2732.06 7734.36,2732.89 7735.38,2735.31C7736.37,2737.66 7735.57,2739.67 7735.43,2740.02C7735.12,2740.78 7734.66,2741.51 7734.09,2742.09C7609.96,2868.91 7485.59,2995.51 7361.34,3122.21C7361.08,3122.49 7359.54,3124.05 7356.94,3124.08C7354.35,3124.1 7352.78,3122.57 7352.51,3122.3Z" style="fill:rgb(255,123,172);"/>
      <path d="M7372.12,3145.38C7371.85,3145.11 7370.26,3143.59 7370.21,3140.99C7370.16,3138.4 7371.68,3136.82 7371.95,3136.55C7424.34,3081.89 7476.98,3027.47 7529.49,2972.93C7529.76,2972.66 7531.28,2971.07 7533.88,2971.02C7534.68,2971.01 7535.49,2971.14 7536.24,2971.43C7536.6,2971.58 7538.69,2972.39 7539.74,2974.8C7539.89,2975.15 7540.75,2977.14 7539.82,2979.51C7539.53,2980.28 7539.07,2981 7538.5,2981.59C7486.11,3036.24 7433.47,3090.67 7380.96,3145.21C7380.69,3145.49 7379.17,3147.07 7376.57,3147.12C7373.98,3147.16 7372.4,3145.64 7372.12,3145.38Z" style="fill:rgb(255,123,172);"/>
    </g>
</svg>
