<?xml version="1.0" standalone="no"?>
<!DOCTYPE svg PUBLIC "-//W3C//DTD SVG 20010904//EN"
 "http://www.w3.org/TR/2001/REC-SVG-20010904/DTD/svg10.dtd">
<svg version="1.0" xmlns="http://www.w3.org/2000/svg"
 width="1191.000000pt" height="1200.000000pt" viewBox="0 0 1191.000000 1200.000000"
 preserveAspectRatio="xMidYMid meet">

<g transform="translate(0.000000,1200.000000) scale(0.100000,-0.100000)"
fill="#000000" stroke="none">
<path d="M6262 11199 c-152 -14 -312 -60 -347 -99 -16 -17 -18 -17 -73 11
-115 59 -194 72 -427 73 -231 1 -302 -8 -540 -69 -198 -51 -492 -161 -705
-263 -85 -41 -209 -142 -289 -236 -55 -65 -71 -77 -119 -92 -111 -35 -256
-153 -341 -277 -18 -27 -53 -91 -78 -143 -41 -87 -49 -97 -105 -135 -33 -23
-87 -69 -120 -102 -97 -98 -172 -276 -214 -503 -2 -11 -14 -26 -26 -33 -63
-35 -180 -239 -228 -397 l-24 -79 -79 4 c-72 3 -83 1 -145 -30 -43 -21 -96
-60 -152 -114 -108 -103 -153 -138 -215 -165 -100 -44 -100 -44 -103 -77 -4
-43 16 -78 79 -140 98 -96 259 -160 417 -166 l74 -2 -6 -60 c-58 -597 -53
-935 20 -1235 55 -228 110 -353 177 -401 22 -16 48 -29 58 -29 24 0 79 48 79
68 0 10 22 -33 49 -95 60 -139 81 -172 205 -317 113 -134 232 -238 367 -321
206 -128 321 -164 467 -146 104 13 132 29 132 75 0 29 -10 43 -69 98 -83 77
-160 177 -205 267 -34 67 -99 241 -93 247 2 2 84 -49 183 -115 275 -181 488
-293 672 -352 40 -13 71 -27 70 -31 -4 -10 -170 -150 -220 -184 l-39 -27 -39
20 c-53 29 -77 22 -310 -90 -107 -52 -251 -116 -320 -142 -140 -54 -176 -81
-165 -123 4 -15 13 -34 21 -43 8 -8 14 -18 14 -22 0 -3 -75 -45 -166 -93 -158
-84 -165 -89 -159 -113 4 -14 9 -28 12 -31 3 -3 86 37 184 88 l179 92 52 -42
c29 -24 85 -59 123 -79 80 -42 255 -109 283 -109 12 0 36 -22 61 -54 23 -29
68 -73 101 -97 33 -24 60 -45 60 -46 0 -1 -21 -9 -47 -16 -99 -30 -305 -113
-508 -204 -115 -52 -212 -97 -214 -99 -6 -6 31 -44 43 -44 6 0 76 30 156 66
257 117 546 231 557 220 7 -7 -242 -472 -315 -591 -75 -121 -178 -256 -310
-405 -258 -294 -511 -495 -823 -655 -143 -73 -152 -76 -254 -88 -138 -17 -154
-38 -92 -119 80 -105 214 -185 424 -254 261 -86 452 -95 683 -33 12 3 16 -12
21 -76 13 -157 85 -291 198 -365 l23 -15 -101 -242 c-56 -133 -101 -247 -101
-253 0 -6 -7 -21 -15 -34 -14 -21 -20 -23 -57 -15 -22 5 -49 7 -60 3 -17 -5
-19 -12 -14 -43 20 -108 19 -145 -9 -226 -45 -134 -136 -314 -198 -389 -70
-84 -74 -120 -25 -206 90 -158 279 -260 488 -263 180 -3 275 53 453 265 117
140 167 186 265 240 105 58 113 68 111 133 l-2 54 106 110 c59 61 131 143 160
184 63 85 82 103 92 87 4 -6 -7 -26 -24 -46 -22 -25 -31 -45 -31 -70 0 -75 90
-113 140 -59 21 22 24 35 22 90 l-1 64 42 11 c180 45 303 130 444 305 l32 40
0 -68 c1 -82 36 -195 86 -277 85 -139 255 -249 427 -276 31 -5 38 -10 32 -23
-23 -57 -36 -114 -37 -171 -1 -103 37 -156 122 -167 52 -7 85 14 101 63 18 53
5 108 -46 202 l-44 82 58 0 c80 0 160 23 277 79 114 54 169 97 187 147 6 19
15 34 18 34 4 0 37 -35 74 -77 82 -95 202 -204 272 -249 96 -62 278 -150 364
-177 88 -27 208 -47 286 -47 31 0 50 -6 64 -20 28 -28 60 -25 142 11 106 47
412 109 578 118 152 8 176 17 205 78 46 96 -32 403 -135 532 -49 63 -87 76
-219 74 -110 -2 -115 -1 -180 32 -36 18 -88 49 -116 69 -27 20 -55 36 -60 36
-6 0 -18 20 -27 44 -15 41 -15 44 1 49 19 5 41 89 41 154 0 18 2 33 5 33 3 0
28 -16 55 -36 111 -80 331 -136 443 -114 33 6 65 14 72 16 8 4 14 -10 19 -44
19 -145 139 -230 217 -153 50 50 36 143 -31 208 -18 18 -46 35 -61 38 -16 4
-29 8 -29 10 0 2 11 20 24 40 38 55 58 139 64 258 4 105 5 108 26 102 72 -21
170 -26 311 -16 178 13 283 37 380 90 87 47 207 133 235 168 20 25 26 66 14
97 -3 9 -65 45 -138 80 -207 101 -491 295 -761 521 -219 183 -554 534 -750
785 -109 140 -226 302 -222 306 9 9 278 -180 322 -226 87 -90 232 -146 360
-138 84 6 112 20 155 80 24 33 30 51 30 95 0 29 -7 70 -15 90 -8 20 -14 37
-13 38 2 1 47 9 101 18 53 10 103 18 109 20 7 1 37 -46 69 -105 102 -192 165
-269 316 -389 130 -104 229 -148 375 -168 128 -18 170 7 154 92 l-6 32 128 0
c119 0 131 2 184 28 89 44 173 112 214 175 49 73 84 161 91 226 4 42 1 56 -17
79 -30 38 -57 34 -127 -18 -63 -47 -127 -75 -173 -75 -49 0 -138 82 -197 180
-34 57 -70 170 -78 242 l-7 67 43 11 c172 43 350 123 446 200 71 57 171 174
202 236 68 136 35 290 -76 351 -35 20 -42 21 -59 9 -15 -11 -19 -29 -21 -95
-4 -119 -41 -180 -143 -232 -36 -18 -66 -24 -147 -27 -113 -5 -118 -1 -83 49
47 66 171 379 228 579 54 185 66 269 65 455 0 187 -4 215 -68 485 -70 294 -79
355 -79 540 0 91 8 259 18 374 15 177 17 282 13 685 -5 494 -11 587 -58 851
-30 171 -82 363 -126 465 -121 281 -401 582 -625 672 -128 52 -273 65 -367 32
-29 -10 -32 -14 -25 -43 3 -17 7 -32 9 -34 1 -1 18 5 38 13 48 20 178 19 248
-1 280 -82 595 -431 708 -787 38 -118 84 -346 105 -517 42 -332 49 -931 15
-1346 -35 -433 -25 -565 76 -973 19 -79 40 -182 46 -229 15 -110 6 -383 -15
-477 -49 -218 -179 -570 -263 -714 l-26 -45 -37 41 c-119 134 -168 380 -156
773 4 112 3 201 -2 208 -5 8 -18 12 -28 10 -14 -2 -21 -15 -26 -53 -10 -78 -9
-451 2 -545 29 -252 127 -448 258 -512 40 -20 62 -23 147 -22 133 0 197 25
277 104 60 61 88 124 88 202 0 48 15 42 41 -16 43 -95 16 -188 -90 -313 -96
-113 -214 -188 -391 -251 -219 -77 -439 -90 -617 -37 -70 21 -164 97 -233 187
-51 68 -61 88 -79 165 -52 226 -51 560 3 684 4 10 1 23 -9 33 -54 54 -96 -100
-96 -354 -1 -220 31 -404 90 -523 21 -44 24 -57 12 -52 -9 4 -62 9 -119 12
-63 4 -106 11 -112 19 -37 43 -37 420 0 614 33 180 75 295 128 355 68 76 120
158 169 264 24 53 50 110 58 126 8 17 19 42 24 56 l9 26 119 -5 c92 -3 132 -1
175 12 93 27 138 79 109 125 -5 8 -40 37 -77 65 -79 59 -194 191 -194 223 0
12 11 68 24 125 58 246 81 464 74 715 -4 156 -7 178 -23 190 -43 30 -44 25
-44 -234 0 -275 -12 -398 -62 -622 -43 -197 -125 -479 -164 -566 -7 -16 -30
-73 -50 -125 -46 -121 -91 -201 -164 -292 -73 -92 -141 -154 -194 -179 -42
-19 -97 -25 -97 -11 0 4 25 57 55 117 64 127 91 219 75 259 -5 14 -14 26 -19
26 -23 0 -41 -14 -41 -30 0 -18 -159 -232 -264 -356 -73 -86 -198 -197 -291
-259 -126 -84 -340 -169 -570 -226 -114 -29 -130 -30 -323 -29 -221 0 -387 18
-486 51 -82 28 -180 79 -170 88 5 5 34 16 64 26 30 9 141 59 245 110 149 74
217 114 315 187 113 85 210 180 210 206 0 5 8 16 17 23 53 44 189 256 180 282
-2 7 28 21 75 34 119 35 338 153 353 191 6 17 -12 42 -30 42 -7 0 -52 -24 -99
-54 -104 -66 -209 -110 -294 -126 -109 -19 -321 16 -310 52 3 7 38 31 79 53
102 54 254 206 342 340 143 220 245 430 286 591 72 283 93 572 72 967 -9 153
-18 185 -53 172 -13 -5 -15 -55 -14 -378 0 -205 -5 -393 -10 -419 l-9 -48
-112 55 c-97 46 -113 57 -113 78 0 37 -39 176 -71 252 -16 38 -25 71 -21 73 5
1 43 25 85 53 60 39 77 55 77 74 0 42 -29 37 -122 -22 l-90 -57 -37 40 c-76
86 -206 160 -331 188 -106 24 -255 36 -330 26 l-65 -9 -48 51 c-54 57 -155
251 -159 308 -3 33 -1 36 62 67 117 57 332 87 466 64 104 -18 259 -83 327
-136 32 -25 74 -71 93 -100 36 -57 53 -66 74 -40 36 43 -107 202 -234 261
-212 97 -372 115 -601 64 -49 -11 -117 -33 -152 -49 l-63 -30 -5 22 c-15 71
-26 152 -31 247 l-7 108 47 111 c27 64 48 130 49 154 2 38 0 42 -24 45 -24 3
-27 -3 -51 -75 -58 -174 -192 -429 -368 -698 -150 -229 -220 -354 -270 -482
-39 -99 -70 -219 -70 -270 0 -47 -13 -15 -31 79 -32 165 -44 398 -29 574 13
162 11 179 -26 172 -27 -5 -33 -52 -41 -293 -11 -377 43 -653 161 -836 l55
-84 -35 -3 c-96 -9 -238 62 -355 178 l-87 85 -12 92 c-7 51 -18 97 -25 103
-15 12 -41 4 -49 -15 -7 -20 20 -191 39 -244 8 -24 14 -46 12 -48 -2 -1 -25
14 -52 34 -60 47 -188 200 -238 284 -52 89 -134 301 -168 438 -30 118 -66 358
-55 368 3 4 37 -24 75 -60 38 -37 71 -67 74 -67 9 0 37 31 37 41 0 15 -89 106
-142 145 -46 34 -48 38 -48 82 0 72 26 245 54 372 52 229 154 485 233 586 52
65 54 70 47 88 -22 57 -103 -33 -189 -209 -68 -139 -123 -298 -160 -460 -23
-103 -58 -184 -123 -288 -30 -46 -41 -57 -57 -52 -136 36 -314 30 -456 -14
-130 -42 -174 -78 -134 -111 13 -11 25 -8 68 13 29 14 90 36 137 48 71 18 104
21 201 17 163 -7 165 -9 92 -94 -136 -157 -292 -288 -458 -383 -88 -50 -291
-141 -316 -141 -7 0 -35 25 -64 55 -54 59 -78 67 -95 35 -9 -17 -4 -27 35 -69
l47 -50 -39 -10 c-21 -5 -76 -19 -123 -30 -269 -65 -338 -73 -625 -74 -261 -1
-351 7 -480 45 -83 24 -205 77 -205 89 0 5 17 9 39 9 61 0 204 28 275 54 187
67 286 165 713 701 330 416 691 756 1061 1002 79 53 165 103 190 113 49 19 65
47 39 68 -25 21 -101 -15 -270 -128 -427 -286 -731 -581 -1192 -1160 -200
-250 -350 -411 -437 -470 -60 -40 -166 -85 -176 -75 -20 20 63 326 120 440 38
74 97 165 108 165 5 0 10 -21 12 -47 3 -41 6 -48 25 -51 23 -3 49 30 38 49
-12 18 15 217 41 307 41 146 94 244 173 323 38 38 73 69 78 69 5 0 3 -41 -4
-92 -14 -97 -8 -138 21 -138 24 0 33 23 44 117 28 237 173 495 340 607 39 25
74 46 80 46 5 0 12 -9 15 -20 3 -13 14 -20 31 -20 20 0 30 9 45 38 24 46 150
192 222 256 139 123 695 342 1024 402 143 27 520 27 614 1 85 -24 138 -51 183
-94 l37 -36 53 56 c90 95 206 120 528 119 330 -2 556 -32 827 -107 142 -40
210 -65 371 -136 200 -88 394 -212 516 -329 l85 -82 7 38 c7 38 6 40 -66 106
-73 69 -225 176 -342 242 -186 104 -537 225 -783 271 -254 47 -654 73 -843 54z
m-1300 -2005 c-3 -26 -8 -34 -19 -30 -8 3 -17 6 -19 6 -3 0 3 14 13 30 23 39
30 38 25 -6z m1655 -134 c9 -63 16 -117 16 -120 -1 -3 -4 -12 -8 -21 -4 -10 1
-24 13 -35 11 -11 25 -37 32 -59 25 -76 67 -160 123 -242 l55 -83 -42 -11
c-81 -22 -197 -90 -265 -158 -324 -323 -239 -889 161 -1065 83 -36 232 -67
355 -73 327 -17 618 122 718 341 34 73 65 183 65 227 0 14 3 28 6 32 3 3 42
-12 87 -34 47 -23 92 -38 105 -36 12 2 22 0 22 -4 0 -28 -53 -254 -76 -321
-51 -155 -211 -439 -330 -586 -78 -97 -162 -171 -244 -212 -64 -32 -110 -80
-110 -114 0 -63 117 -116 255 -116 32 0 55 -4 55 -10 0 -44 -146 -237 -274
-365 -77 -76 -108 -99 -201 -147 -174 -90 -282 -111 -815 -159 -435 -39 -906
-17 -1212 55 -159 38 -600 183 -723 238 -188 84 -481 262 -677 410 -134 101
-234 248 -245 361 -5 49 0 62 71 212 42 88 76 166 76 173 0 17 10 15 73 -13
179 -79 327 -69 327 21 0 9 -42 61 -94 114 -77 79 -101 113 -140 190 -91 186
-129 412 -124 739 l3 193 143 36 c131 32 144 34 159 19 14 -14 13 -19 -14 -54
-233 -295 -166 -753 136 -927 157 -91 426 -128 609 -85 26 6 90 32 142 56 181
86 301 243 350 458 18 77 22 114 17 188 -3 51 -9 103 -12 117 -5 15 7 4 30
-30 92 -136 238 -291 307 -326 18 -9 40 -22 48 -29 31 -25 51 -25 76 0 l25 25
47 -34 c106 -76 222 -116 336 -116 62 0 96 17 96 49 0 8 -25 52 -56 97 -55 79
-56 83 -60 164 -16 260 60 453 349 892 53 80 122 193 154 250 51 91 58 99 60
73 2 -17 11 -82 20 -145z m-1693 36 l32 -13 12 -124 c19 -185 66 -390 127
-544 5 -11 -10 3 -32 30 -133 164 -403 244 -673 199 -32 -6 -29 -2 40 46 155
108 293 236 395 368 44 56 50 59 99 38z m-2319 -288 c4 -3 0 -46 -7 -94 -16
-103 -14 -101 -145 -103 -96 -1 -118 -14 -108 -65 12 -53 35 -78 106 -110 58
-26 69 -35 69 -55 0 -44 -23 -156 -33 -163 -16 -10 -123 2 -203 22 -131 34
-261 117 -300 191 -20 39 -18 48 14 55 73 18 144 67 272 189 112 106 192 148
272 143 32 -2 60 -7 63 -10z m2109 -233 c56 -9 181 -73 231 -117 108 -95 179
-264 179 -423 1 -287 -182 -530 -451 -599 -36 -10 -103 -16 -162 -16 -330 0
-549 145 -616 405 -19 76 -19 214 0 289 52 199 209 360 420 432 62 21 108 29
205 34 69 3 132 5 140 4 8 -1 33 -5 54 -9z m-679 -95 c-3 -5 -11 -10 -16 -10
-6 0 -7 5 -4 10 3 6 11 10 16 10 6 0 7 -4 4 -10z m3275 -42 c53 -13 147 -59
208 -100 137 -94 243 -319 243 -518 1 -259 -138 -447 -391 -533 -91 -31 -101
-32 -250 -31 -133 1 -169 4 -251 26 -131 36 -211 78 -286 153 -220 220 -215
605 11 829 105 106 220 159 394 185 70 11 261 4 322 -11z m-4614 -84 c50 -12
142 -18 342 -21 251 -5 329 -1 500 24 l42 6 0 -187 c0 -478 90 -780 289 -970
34 -31 61 -60 61 -63 0 -16 -126 9 -207 40 -114 44 -190 95 -269 179 -33 35
-65 68 -72 72 -17 10 -42 -11 -42 -35 0 -21 130 -156 178 -184 18 -11 32 -27
32 -38 0 -10 -34 -92 -76 -180 -42 -89 -79 -181 -81 -204 -11 -84 60 -247 146
-338 31 -33 45 -63 80 -170 76 -237 166 -393 294 -510 38 -34 65 -65 60 -68
-24 -15 -147 -19 -205 -7 -118 25 -345 158 -482 282 -94 85 -250 268 -292 344
-19 33 -61 132 -94 220 -34 87 -69 177 -80 199 -10 22 -27 69 -36 105 -10 36
-21 69 -25 74 -20 23 -23 -132 -6 -379 2 -24 -2 -31 -20 -33 -17 -3 -26 4 -34
25 -6 15 -24 57 -40 93 -59 136 -111 376 -130 600 -17 211 -4 494 46 992 8 83
15 153 15 155 0 2 8 2 19 -2 10 -3 49 -13 87 -21z m6843 -1755 c28 -19 51 -38
51 -42 0 -4 -17 -15 -37 -25 -43 -18 -255 -24 -271 -7 -6 6 6 59 30 134 l40
124 68 -75 c38 -41 91 -90 119 -109z m-899 -649 c-16 -33 -30 -70 -30 -83 0
-61 92 -80 184 -39 l48 22 -5 -23 c-76 -311 -89 -511 -54 -812 1 -13 -5 -20
-18 -22 -11 -2 -61 -15 -111 -29 l-91 -26 -94 47 c-127 64 -122 58 -93 112 13
25 24 51 24 58 0 21 -32 40 -134 80 -66 26 -114 53 -145 81 -59 53 -80 63
-113 57 -21 -4 -34 2 -58 25 -17 17 -27 33 -22 36 4 2 43 19 87 36 212 84 401
229 566 435 46 58 85 105 87 105 1 0 -11 -27 -28 -60z m-4049 -281 c-57 -154
-96 -336 -107 -489 -4 -55 -10 -100 -13 -100 -3 0 -34 25 -68 56 -82 73 -140
185 -150 288 -4 50 -3 67 5 62 6 -4 25 0 42 9 38 20 259 186 284 214 28 31 29
21 7 -40z m253 -23 c45 -11 181 -8 265 5 l75 12 20 -29 c81 -115 183 -174 302
-174 88 0 136 24 152 78 18 61 29 66 134 59 96 -7 97 -7 168 -78 131 -131 398
-100 560 65 59 60 87 69 121 38 19 -19 19 -19 -6 -30 -14 -7 -31 -12 -36 -12
-6 0 -30 -20 -53 -44 -74 -75 -179 -125 -310 -146 -86 -14 -171 1 -245 41 -85
45 -34 -2 74 -69 241 -149 506 -233 750 -236 115 -1 206 23 302 81 31 18 57
32 58 31 1 -2 -2 -39 -7 -83 -15 -124 -5 -320 19 -381 17 -44 19 -61 11 -115
-5 -35 -10 -140 -11 -234 -2 -165 -1 -172 27 -245 16 -41 39 -91 53 -111 33
-50 132 -132 240 -198 509 -315 768 -509 938 -704 141 -162 335 -446 366 -536
6 -17 8 -43 5 -57 l-7 -27 -22 20 c-33 31 -55 40 -163 67 -233 59 -244 59
-739 61 -491 2 -592 10 -740 55 -114 35 -223 97 -291 165 -51 50 -66 74 -93
145 -18 47 -39 88 -46 92 -8 5 -16 40 -20 95 -10 131 -34 315 -56 428 -27 141
-76 523 -90 700 -11 155 -21 184 -55 171 -15 -6 -16 -19 -10 -136 7 -154 56
-550 91 -740 32 -181 43 -258 56 -430 15 -200 13 -275 -10 -348 -61 -197 -305
-413 -556 -492 -102 -32 -299 -39 -431 -15 -256 46 -373 103 -511 248 -128
135 -188 291 -187 483 l1 110 42 61 c89 131 225 455 270 643 56 237 114 551
105 575 -7 17 -40 20 -50 4 -3 -6 -22 -94 -40 -197 -70 -381 -107 -509 -215
-750 -83 -185 -152 -294 -256 -403 -130 -137 -307 -253 -469 -308 -172 -57
-495 -100 -739 -97 -101 1 -116 11 -93 58 16 34 31 54 288 393 84 109 187 251
229 315 43 64 118 170 167 235 177 238 303 513 351 765 12 64 16 161 18 395 2
292 12 416 35 430 4 3 15 -11 24 -29 24 -51 63 -61 236 -59 162 1 364 24 485
54 72 18 200 72 210 88 2 4 -21 8 -51 9 -105 4 -221 66 -288 153 l-35 46 -58
-9 c-32 -5 -110 -8 -173 -6 -98 4 -123 8 -170 30 -79 37 -94 50 -86 76 7 21 8
21 74 -12 37 -18 80 -36 96 -40z m-635 -98 c-22 -78 -5 -194 44 -298 33 -70
91 -138 168 -197 43 -32 49 -42 49 -74 0 -36 -1 -36 -47 -42 -129 -15 -355 22
-508 83 -156 62 -291 157 -338 238 l-18 31 28 14 c15 8 60 26 98 40 95 34 245
101 390 175 66 34 125 61 132 61 8 1 9 -8 2 -31z m3714 -214 c37 -36 67 -70
67 -75 0 -5 -26 -35 -58 -66 -88 -88 -326 -216 -449 -243 -26 -6 -56 -13 -65
-16 -14 -4 -18 0 -18 18 0 30 -61 91 -86 86 -12 -2 -29 -30 -50 -81 -30 -74
-32 -76 -38 -46 -14 70 7 302 33 372 10 27 12 27 104 27 111 0 223 18 362 59
55 16 107 29 115 30 8 0 45 -29 83 -65z m235 -108 c15 -7 64 -28 109 -46 l81
-32 -32 -55 c-44 -74 -129 -158 -192 -189 -86 -42 -205 -57 -384 -50 -192 8
-225 13 -209 32 8 9 8 14 1 14 -6 0 -14 -4 -17 -10 -3 -5 -16 -10 -28 -9 -14
0 -16 2 -7 6 8 2 24 8 35 13 11 5 53 22 94 39 203 83 391 221 435 318 l19 43
34 -30 c18 -16 46 -36 61 -44z m268 -292 c122 -62 140 -64 264 -28 91 26 350
27 397 2 52 -29 73 -64 73 -121 0 -66 -26 -119 -99 -199 -91 -98 -179 -138
-345 -153 -45 -4 -80 -13 -82 -19 -3 -7 7 -37 21 -67 35 -75 40 -111 21 -147
-38 -73 -93 -91 -200 -68 -108 25 -189 67 -259 137 -54 55 -221 175 -372 268
l-55 34 64 39 c76 45 141 116 157 169 10 32 17 38 48 44 64 12 139 55 193 110
29 30 56 54 59 55 4 0 55 -25 115 -56z m-3955 -65 c8 -14 11 -107 4 -129 -9
-29 -55 -25 -129 11 -60 29 -153 97 -168 123 -8 14 284 9 293 -5z m2944 -99
c34 -38 76 -99 95 -136 19 -36 44 -73 55 -80 12 -9 46 -14 87 -14 l67 0 84
-122 c223 -323 427 -568 712 -854 273 -274 459 -426 775 -636 91 -61 220 -137
287 -169 91 -44 121 -63 117 -74 -10 -24 -166 -132 -246 -170 -40 -19 -107
-42 -148 -50 -84 -18 -347 -32 -403 -21 -35 7 -36 8 -29 39 4 18 7 66 7 107
-1 71 -3 79 -51 164 -66 115 -200 304 -308 433 -175 209 -462 427 -980 744
-49 30 -121 86 -160 124 -61 60 -75 80 -96 140 -23 65 -25 83 -24 240 2 162
24 377 44 431 l10 26 23 -27 c12 -15 49 -58 82 -95z m73 44 c28 -9 199 -19
340 -19 72 0 132 -1 132 -3 0 -2 -7 -16 -14 -31 -36 -68 -181 -154 -282 -167
-45 -5 -58 -3 -74 11 -11 10 -20 22 -20 28 0 5 -16 36 -36 69 -31 51 -34 61
-22 75 11 15 11 16 -5 10 -12 -5 -27 2 -45 19 -26 24 -25 25 26 8z m1957 -46
c70 -13 137 -18 225 -17 l125 2 6 -64 c13 -122 72 -256 158 -358 64 -77 122
-111 185 -111 61 1 148 34 205 79 22 17 42 27 45 23 10 -16 -24 -124 -56 -181
-42 -73 -101 -127 -190 -176 -72 -39 -75 -40 -173 -40 -82 1 -108 5 -146 23
-53 26 -63 27 -79 7 -11 -14 -7 -30 35 -137 6 -15 1 -18 -31 -18 -110 1 -262
56 -364 132 -83 62 -198 176 -240 238 -43 64 -127 226 -131 255 -2 14 25 48
83 107 95 95 138 170 146 248 l4 48 47 -21 c25 -11 91 -29 146 -39z m-5006
-103 l34 -7 -6 -72 c-20 -219 -164 -550 -349 -798 -50 -67 -122 -169 -161
-227 -39 -58 -143 -200 -231 -316 -88 -115 -184 -241 -213 -280 -65 -86 -103
-159 -103 -200 0 -39 43 -108 99 -158 l41 -37 -26 -10 c-60 -23 -200 -41 -274
-34 -250 21 -538 126 -672 245 -32 28 -58 54 -58 58 0 5 35 11 78 14 71 5 90
12 228 81 337 167 642 414 916 740 181 215 263 335 395 581 236 437 235 436
251 431 10 -2 32 -8 51 -11z m429 -1594 c5 -136 74 -327 157 -435 34 -45 36
-50 24 -78 -15 -37 -46 -51 -75 -33 -12 8 -31 11 -43 8 -17 -4 -167 16 -243
33 -10 2 -28 6 -40 9 -12 2 -26 9 -32 15 -5 5 -18 10 -27 10 -10 0 -28 15 -40
33 -13 17 -27 35 -32 38 -5 3 -7 8 -6 10 2 2 -4 15 -14 29 -15 21 -19 23 -27
10 -8 -13 -10 -12 -10 3 0 9 -9 25 -20 34 -36 31 -24 49 56 93 98 52 231 148
308 222 34 31 61 57 61 58 0 0 1 -26 3 -59z m1894 -158 c42 -58 130 -124 239
-179 57 -28 88 -50 92 -63 3 -14 0 -21 -9 -21 -7 0 -21 -14 -30 -31 -12 -25
-18 -29 -25 -18 -6 10 -9 10 -9 2 0 -7 -9 -13 -20 -13 -11 0 -20 -5 -20 -10 0
-6 -41 -11 -102 -11 -57 -1 -134 -2 -171 -3 -65 -1 -70 1 -92 28 -40 50 -39
69 5 137 40 63 71 145 85 229 7 40 9 42 16 22 5 -13 24 -44 41 -69z m-2367
-198 c6 -2 -12 -4 -40 -4 -27 0 -56 3 -63 8 -13 8 79 4 103 -4z m-352 -19 c3
3 3 -3 0 -15 -6 -23 -19 -28 -26 -8 -2 6 -8 9 -12 5 -4 -4 0 -15 9 -24 16 -15
16 -18 -5 -40 -12 -13 -17 -24 -11 -24 7 0 6 -12 -5 -37 -9 -21 -45 -123 -80
-228 -36 -104 -68 -193 -72 -198 -4 -4 -26 9 -50 29 -44 38 -91 120 -111 193
-24 92 -7 260 32 313 10 14 36 20 108 25 52 5 118 8 147 7 35 0 50 3 46 10 -4
6 0 5 9 -1 8 -7 17 -10 21 -7z m-403 -10 c0 -16 -24 -66 -33 -66 -14 0 -77 49
-77 61 0 5 25 9 55 9 30 0 55 -2 55 -4z m692 -45 l77 -1 6 -37 c33 -212 156
-327 351 -328 61 0 80 5 146 38 83 40 137 93 179 172 13 25 27 45 32 45 4 0
31 -19 60 -42 90 -72 267 -140 440 -170 12 -2 -69 -90 -278 -298 -310 -309
-470 -481 -572 -615 -34 -44 -103 -123 -155 -175 l-93 -95 -47 46 c-100 96
-219 128 -348 94 -109 -29 -107 -29 -115 -5 -10 31 -70 95 -113 122 -31 19
-50 23 -114 22 -72 -1 -78 0 -104 27 l-27 28 71 173 c39 95 90 218 112 273 23
55 73 190 111 300 38 110 93 259 121 330 l51 131 66 -18 c36 -9 101 -17 143
-17z m3284 -25 c20 -20 142 -329 184 -466 22 -74 59 -193 81 -263 l40 -128
-15 -69 c-9 -38 -16 -82 -16 -99 0 -25 -8 -33 -54 -59 -59 -34 -89 -80 -101
-159 -9 -54 15 -136 55 -191 16 -23 30 -45 30 -50 0 -4 -12 -24 -26 -45 -14
-21 -30 -65 -36 -97 l-12 -60 -48 0 c-227 0 -543 141 -744 332 -79 75 -211
231 -282 331 -47 67 -246 395 -281 465 -24 47 -141 331 -141 342 0 3 34 28 75
54 42 26 102 70 136 98 33 28 61 49 63 47 1 -2 19 -27 39 -55 50 -70 119 -132
175 -156 92 -41 246 -20 308 41 16 16 38 53 49 83 l21 53 94 6 c108 6 177 24
191 50 8 15 20 17 106 12 54 -3 103 -10 109 -17z m374 -6 c-12 -8 -10 -10 8
-10 13 0 21 4 18 8 -2 4 29 8 70 9 41 0 74 -4 74 -9 0 -6 43 -8 105 -6 58 1
105 0 105 -4 0 -5 8 -8 18 -8 14 0 15 2 2 10 -12 8 -11 10 7 10 12 0 23 -5 25
-10 2 -6 13 -12 26 -13 12 0 22 -7 22 -15 0 -10 4 -10 16 2 20 20 28 20 20 1
-5 -13 -2 -14 15 -4 17 8 24 7 36 -8 8 -10 12 -12 8 -5 -10 19 23 14 34 -5 8
-14 10 -14 11 -3 0 10 3 11 11 3 6 -6 18 -9 27 -6 9 4 13 2 9 -4 -5 -7 0 -9
13 -6 22 6 26 -7 9 -24 -8 -8 -6 -11 7 -10 11 1 18 -4 17 -10 -2 -7 2 -13 8
-13 6 0 9 -9 6 -20 -3 -11 -1 -18 3 -15 14 8 23 -102 17 -189 -13 -169 -57
-240 -175 -276 -35 -11 -84 -20 -108 -20 -78 0 -196 30 -284 72 -115 55 -218
158 -274 273 -21 44 -47 96 -57 116 -11 23 -14 40 -8 46 6 6 4 10 -5 10 -8 0
-13 -4 -11 -8 3 -3 -4 -9 -15 -12 -11 -3 -19 -2 -18 2 3 15 -15 40 -25 34 -6
-3 -7 -1 -3 5 4 6 2 21 -5 33 -6 12 -7 19 -2 16 5 -3 9 2 9 12 0 12 -6 17 -18
13 -14 -3 -17 0 -11 13 4 13 3 16 -5 11 -7 -4 -12 -2 -12 4 0 8 23 11 74 9 41
-2 78 -1 81 3 3 3 36 6 73 7 46 0 62 -2 52 -9z m233 3 c-7 -2 -19 -2 -25 0 -7
3 -2 5 12 5 14 0 19 -2 13 -5z m95 0 c-16 -2 -40 -2 -55 0 -16 2 -3 4 27 4 30
0 43 -2 28 -4z m-2141 -295 c-5 -30 -5 -31 5 -10 11 23 11 23 25 -9 7 -17 10
-35 7 -40 -3 -5 0 -9 5 -9 6 0 10 -3 9 -7 -1 -5 3 -18 10 -29 6 -12 8 -24 5
-28 -4 -3 2 -12 12 -20 11 -8 16 -21 13 -32 -3 -11 1 -25 9 -32 15 -15 18 -46
3 -37 -5 3 -10 -1 -10 -9 0 -19 11 -20 29 -3 9 8 12 8 7 0 -3 -6 -3 -13 2 -15
4 -1 64 -96 132 -211 69 -114 150 -243 181 -285 l56 -79 -14 -45 c-17 -59 -59
-96 -166 -147 -123 -58 -184 -73 -301 -72 -263 1 -464 118 -562 326 -66 143
-67 263 -4 455 21 63 42 136 45 162 5 31 11 46 19 41 8 -4 8 -3 0 6 -6 7 -21
13 -33 14 -11 1 -21 5 -21 10 0 5 8 6 17 3 10 -4 14 -4 10 0 -12 12 12 32 32
27 10 -3 22 0 25 6 4 7 1 8 -8 5 -21 -8 -20 10 0 27 19 15 72 13 93 -4 12 -9
13 -9 7 1 -5 8 0 12 13 12 12 0 21 -6 21 -12 0 -10 2 -10 8 -1 4 7 16 12 27
12 69 0 94 4 88 13 -4 7 4 9 21 6 14 -3 51 3 82 13 31 10 60 16 65 13 5 -3 9
0 9 5 0 6 7 11 16 11 13 0 15 -7 11 -32z m1741 -156 c37 -49 49 -109 37 -188
-9 -61 -13 -53 -59 114 -21 73 -39 141 -42 150 -3 10 3 6 13 -8 10 -13 33 -44
51 -68z m-2318 -92 c-63 -255 -237 -470 -445 -551 -80 -31 -170 -47 -200 -35
-15 5 -14 10 6 38 44 63 643 658 652 649 6 -6 1 -46 -13 -101z m3150 -148 c14
-11 34 -40 44 -65 16 -38 17 -51 8 -72 -14 -30 -55 -34 -91 -9 -31 22 -61 89
-61 138 l0 39 37 -6 c21 -4 49 -15 63 -25z m-706 -217 c37 -28 197 -105 219
-105 12 0 9 -15 -15 -77 -27 -70 -30 -86 -26 -168 5 -117 35 -184 117 -265
l60 -58 -52 -7 c-52 -7 -216 -55 -395 -114 -52 -17 -102 -31 -113 -31 -49 0
-49 108 2 196 16 28 29 57 29 64 0 7 -14 29 -30 50 -62 78 -76 159 -41 237 15
32 31 48 70 67 27 14 52 30 55 35 4 5 11 44 16 86 5 41 14 84 20 95 14 27 45
25 84 -5z m420 -129 c19 -8 36 -18 39 -23 3 -5 -13 -65 -35 -134 -38 -113 -42
-133 -42 -231 -1 -60 -4 -108 -8 -108 -16 0 -98 93 -117 134 -51 105 -50 207
4 324 l24 52 51 0 c28 0 66 -6 84 -14z m147 -236 c39 -119 50 -237 25 -275
-15 -22 -23 -25 -80 -25 l-64 0 -12 51 c-19 78 -7 197 30 314 l32 99 19 -34
c10 -19 33 -78 50 -130z m-5005 96 c28 -13 62 -38 77 -57 23 -30 28 -32 52
-21 14 7 48 12 74 12 38 0 57 -7 90 -30 47 -34 81 -84 81 -118 0 -35 22 -36
104 -7 52 17 100 26 149 27 68 2 78 -1 134 -35 102 -62 143 -118 146 -199 2
-29 -3 -35 -39 -53 -74 -37 -178 -108 -232 -158 l-53 -50 -32 30 c-142 133
-278 189 -440 181 l-92 -5 -30 41 c-28 37 -79 79 -108 89 -9 3 -4 29 17 93 30
91 40 198 23 257 -10 35 9 36 79 3z m1370 -109 c-8 -33 -30 -40 -57 -18 -21
16 -21 19 -5 49 9 17 24 35 33 41 15 8 20 5 27 -19 5 -16 6 -40 2 -53z m1219
-303 c36 -72 46 -139 23 -162 -36 -36 -113 5 -124 65 -7 38 6 126 25 177 12
29 12 29 26 9 8 -11 30 -51 50 -89z m-2667 -19 c16 -13 35 -38 42 -55 11 -27
10 -32 -14 -61 -14 -17 -29 -41 -32 -53 -5 -22 -7 -22 -57 -9 -28 7 -66 13
-84 13 l-32 0 22 33 c12 18 35 61 51 95 34 71 55 79 104 37z m367 -115 c71
-25 166 -85 219 -139 l39 -40 -40 -48 c-93 -111 -206 -202 -236 -190 -7 2 -20
27 -30 55 -20 54 -122 162 -205 217 -41 27 -42 29 -25 47 9 11 20 40 23 66 4
42 8 48 35 54 48 11 155 1 220 -22z m-305 -55 c-7 -9 -15 -13 -18 -10 -3 2 1
11 8 20 7 9 15 13 18 10 3 -2 -1 -11 -8 -20z m-96 -64 c61 -21 148 -78 222
-144 48 -44 123 -162 110 -175 -14 -14 -126 -13 -196 2 -111 23 -208 75 -271
144 -78 85 -98 139 -66 180 15 19 139 15 201 -7z"/>
<path d="M5253 7044 c-16 -43 115 -209 215 -272 126 -81 286 -82 434 -5 101
53 207 168 191 209 -11 29 -38 26 -63 -7 -50 -67 -110 -118 -176 -150 -64 -32
-75 -34 -169 -34 -85 0 -107 4 -149 24 -61 30 -151 118 -200 194 -37 58 -70
74 -83 41z"/>
<path d="M4337 8446 c-126 -37 -207 -149 -207 -285 1 -138 109 -235 265 -235
87 0 146 26 215 95 72 72 95 159 69 263 -31 125 -197 203 -342 162z"/>
<path d="M7085 8285 c-5 -2 -28 -9 -50 -14 -52 -13 -119 -79 -141 -137 -21
-56 -15 -154 14 -210 41 -80 131 -138 233 -150 153 -18 299 107 299 255 0 108
-75 210 -178 245 -40 14 -150 21 -177 11z"/>
<path d="M5712 4673 c-20 -20 -52 -38 -88 -49 l-56 -16 29 -30 c15 -17 61 -52
102 -79 l74 -48 68 57 c37 31 68 59 68 62 1 4 -15 12 -35 19 -39 14 -112 75
-123 101 -5 14 -12 11 -39 -17z"/>
<path d="M3928 2683 c7 -3 16 -2 19 1 4 3 -2 6 -13 5 -11 0 -14 -3 -6 -6z"/>
<path d="M3865 2650 c-3 -5 3 -10 14 -10 12 0 21 5 21 10 0 6 -6 10 -14 10 -8
0 -18 -4 -21 -10z"/>
<path d="M3970 2631 c0 -8 -7 -11 -15 -7 -9 3 -15 0 -15 -9 0 -20 26 -19 34 1
4 9 4 19 1 22 -3 3 -5 0 -5 -7z"/>
<path d="M7885 2583 c11 -3 24 -10 28 -17 6 -7 7 -6 4 4 -2 8 -14 16 -28 17
-19 1 -20 1 -4 -4z"/>
<path d="M8135 2500 c4 -6 11 -8 16 -5 14 9 11 15 -7 15 -8 0 -12 -5 -9 -10z"/>
<path d="M8190 2500 c0 -5 7 -10 15 -10 8 0 15 5 15 10 0 6 -7 10 -15 10 -8 0
-15 -4 -15 -10z"/>
<path d="M8448 2493 c6 -2 18 -2 25 0 6 3 1 5 -13 5 -14 0 -19 -2 -12 -5z"/>
<path d="M8528 2463 c7 -3 16 -2 19 1 4 3 -2 6 -13 5 -11 0 -14 -3 -6 -6z"/>
<path d="M7945 2430 c-3 -5 3 -10 14 -10 12 0 21 5 21 10 0 6 -6 10 -14 10 -8
0 -18 -4 -21 -10z"/>
<path d="M8630 2430 c0 -5 7 -10 15 -10 8 0 15 5 15 10 0 6 -7 10 -15 10 -8 0
-15 -4 -15 -10z"/>
<path d="M8716 2387 c3 -10 9 -15 12 -12 3 3 0 11 -7 18 -10 9 -11 8 -5 -6z"/>
<path d="M5788 2253 c6 -2 18 -2 25 0 6 3 1 5 -13 5 -14 0 -19 -2 -12 -5z"/>
<path d="M5766 2205 c-3 -9 0 -15 9 -15 8 0 15 7 15 15 0 8 -4 15 -9 15 -5 0
-11 -7 -15 -15z"/>
<path d="M5818 2213 c7 -3 16 -2 19 1 4 3 -2 6 -13 5 -11 0 -14 -3 -6 -6z"/>
<path d="M6000 2180 c0 -6 7 -10 15 -10 8 0 15 2 15 4 0 2 -7 6 -15 10 -8 3
-15 1 -15 -4z"/>
<path d="M6245 2151 c-3 -5 -2 -12 3 -15 5 -3 9 1 9 9 0 17 -3 19 -12 6z"/>
<path d="M8826 10461 c-53 -102 -60 -179 -22 -240 15 -23 47 -85 72 -137 25
-52 49 -94 55 -94 12 0 11 7 -1 50 -15 48 -54 336 -62 460 -3 35 -4 34 -42
-39z"/>
<path d="M8420 10466 c-5 -14 -15 -38 -20 -52 -7 -17 -7 -47 0 -92 24 -150 8
-246 -61 -347 -23 -35 -46 -62 -49 -60 -9 5 -11 -6 -16 -100 -2 -44 -7 -90 -9
-102 -7 -32 -44 -63 -76 -63 -33 0 -42 -11 -68 -81 -12 -31 -38 -73 -58 -94
-47 -48 -146 -94 -223 -102 -58 -6 -59 -6 -95 -60 -41 -62 -41 -84 2 -125 l28
-27 45 21 c25 12 75 23 111 26 56 4 73 1 121 -22 31 -14 73 -40 93 -56 35 -28
44 -30 121 -30 74 0 86 -3 113 -26 22 -18 31 -35 32 -57 1 -64 22 -100 66
-114 44 -15 102 -67 139 -124 27 -43 54 -140 54 -195 0 -31 7 -44 43 -78 24
-23 57 -49 73 -58 l30 -17 41 53 42 53 -16 52 c-10 35 -14 81 -11 139 3 98 24
151 85 214 l36 37 -7 80 c-3 45 -11 92 -16 107 -18 47 -11 79 30 134 22 29 37
57 34 61 -3 5 -6 27 -6 49 -1 56 38 111 96 138 43 21 46 25 67 92 12 39 18 74
14 78 -4 4 -39 7 -78 7 -90 0 -153 28 -192 85 -16 23 -42 45 -65 54 -22 9 -49
31 -63 51 -14 21 -46 46 -76 61 -59 30 -125 100 -153 164 -11 25 -25 86 -31
135 -11 94 -33 140 -91 194 l-25 24 -11 -27z"/>
<path d="M8348 10265 c-30 -90 -58 -212 -58 -256 l0 -42 26 39 c49 72 69 161
56 254 l-8 55 -16 -50z"/>
<path d="M8584 10253 c7 -52 63 -175 83 -181 7 -2 15 12 19 33 5 31 0 46 -42
115 -26 44 -52 80 -57 80 -6 0 -7 -20 -3 -47z"/>
<path d="M8724 10039 c-3 -6 0 -15 7 -20 23 -14 30 -10 19 11 -12 23 -16 24
-26 9z"/>
<path d="M8990 9805 c23 -25 77 -46 115 -44 18 1 -108 68 -129 69 -5 0 1 -11
14 -25z"/>
<path d="M8012 9563 c-75 -46 -190 -145 -174 -151 24 -8 141 40 181 74 52 45
90 114 63 114 -5 0 -36 -17 -70 -37z"/>
<path d="M9114 9502 c-17 -11 -54 -75 -54 -92 1 -19 23 9 51 63 20 39 21 41 3
29z"/>
<path d="M9113 9219 c-7 -7 -8 -22 -2 -42 5 -17 14 -103 19 -192 6 -88 13
-170 15 -181 10 -48 161 -184 203 -184 13 0 13 2 0 18 -31 35 -63 112 -143
349 -58 171 -85 239 -92 232z"/>
<path d="M7860 9159 c-24 -10 -24 -11 -5 -19 27 -10 247 -42 252 -36 3 2 -14
17 -38 33 -35 23 -55 28 -113 30 -39 2 -82 -2 -96 -8z"/>
<path d="M8968 8903 c-44 -50 -62 -107 -62 -193 1 -47 6 -95 12 -105 10 -18
13 -16 31 26 26 59 51 176 51 240 0 52 -8 60 -32 32z"/>
<path d="M8460 8857 c0 -19 99 -183 137 -226 28 -31 32 -33 33 -15 0 44 -32
125 -70 173 -43 54 -100 93 -100 68z"/>
<path d="M9441 8553 c-1 -31 -38 -53 -87 -53 -47 0 -127 -38 -132 -64 -2 -9
11 -33 29 -53 45 -52 76 -125 91 -218 l13 -80 85 -43 c47 -23 103 -45 125 -49
l40 -6 -34 38 c-18 21 -47 68 -64 104 -28 61 -30 78 -38 226 -4 88 -12 174
-17 190 -8 24 -10 26 -11 8z"/>
<path d="M8923 8286 c-78 -81 -79 -81 -170 -45 -45 18 -104 34 -140 37 -61 5
-64 4 -118 -37 -30 -23 -55 -47 -55 -54 0 -7 21 -42 46 -78 51 -72 87 -139 99
-184 4 -16 7 -94 6 -172 l-2 -141 47 -33 c46 -31 167 -88 190 -89 6 0 55 59
110 131 142 186 134 172 117 221 -38 109 -22 305 33 427 29 65 24 71 -55 71
-53 0 -56 -2 -108 -54z"/>
<path d="M9126 8268 c-8 -13 -25 -61 -37 -108 -18 -70 -21 -103 -16 -186 2
-56 9 -109 14 -119 8 -14 13 -12 37 19 54 71 80 144 81 226 0 77 -22 157 -50
180 -11 9 -17 6 -29 -12z"/>
<path d="M8397 8128 c-26 -40 -47 -129 -47 -199 0 -57 4 -72 25 -97 14 -17 25
-37 25 -45 0 -9 33 -44 73 -77 l72 -61 8 103 c12 154 -8 218 -112 360 l-29 40
-15 -24z"/>
<path d="M2446 5050 c-97 -29 -148 -170 -112 -310 43 -165 146 -263 349 -329
l67 -23 -30 -34 c-70 -81 -79 -152 -23 -190 75 -50 219 -54 359 -9 73 22 164
69 164 83 0 4 -11 15 -24 24 -23 17 -26 17 -69 -7 -134 -75 -385 -85 -395 -16
-3 18 13 40 68 93 80 79 85 103 22 113 -131 22 -293 94 -341 152 -82 99 -112
237 -73 326 29 64 50 72 152 58 75 -11 160 -41 255 -90 21 -12 52 -21 67 -21
51 0 49 59 -3 70 -13 3 -60 23 -103 44 -114 53 -268 84 -330 66z"/>
</g>
</svg>
