<?xml version="1.0" standalone="no"?>
<!DOCTYPE svg PUBLIC "-//W3C//DTD SVG 20010904//EN"
 "http://www.w3.org/TR/2001/REC-SVG-20010904/DTD/svg10.dtd">
<svg version="1.0" xmlns="http://www.w3.org/2000/svg"
 width="626.000000pt" height="626.000000pt" viewBox="0 0 626.000000 626.000000"
 preserveAspectRatio="xMidYMid meet">

<g transform="translate(0.000000,626.000000) scale(0.100000,-0.100000)"
fill="#000000" stroke="none">
<path d="M792 4088 c-9 -9 -12 -231 -12 -940 0 -907 0 -928 19 -938 12 -6 102
-10 224 -10 185 0 205 2 220 18 15 17 17 70 17 553 0 294 4 539 8 545 4 6 15
13 24 17 42 15 52 -12 193 -568 90 -358 142 -544 153 -552 23 -18 391 -18 414
0 11 8 54 158 123 432 59 231 121 476 138 544 35 135 54 164 96 141 21 -11 21
-15 21 -554 0 -513 1 -544 18 -559 17 -15 67 -17 533 -16 283 1 527 4 543 8
28 6 35 24 301 732 269 715 273 727 264 775 -24 127 -125 261 -241 317 -132
63 -100 61 -928 64 -425 2 -761 -1 -769 -6 -7 -5 -67 -221 -138 -497 -68 -269
-131 -495 -138 -503 -19 -19 -62 -6 -71 21 -4 12 -62 236 -129 496 -71 275
-128 478 -136 483 -23 14 -733 11 -747 -3z m2618 -388 c75 -27 110 -81 110
-168 0 -75 -27 -118 -93 -151 -43 -21 -66 -24 -206 -29 -210 -6 -201 -15 -201
183 0 198 -9 190 199 182 86 -3 172 -11 191 -17z m102 -742 c83 -49 110 -149
66 -238 -46 -90 -110 -110 -358 -110 -140 0 -171 3 -184 16 -13 13 -16 43 -16
170 0 92 4 164 11 175 10 20 19 20 222 17 210 -3 212 -3 259 -30z"/>
<path d="M4332 4088 c-15 -19 -692 -1827 -692 -1849 0 -35 32 -39 298 -39 234
0 260 2 274 18 8 9 38 98 67 197 29 99 54 181 56 183 1 1 56 -21 121 -50 109
-48 125 -52 194 -52 68 0 86 5 184 48 59 26 112 44 116 39 4 -4 31 -87 60
-183 28 -96 59 -181 68 -187 20 -17 533 -18 563 -3 10 6 19 21 19 33 0 24
-664 1799 -686 1835 l-14 22 -309 0 c-235 0 -311 -3 -319 -12z m455 -1084 c-3
-3 -12 -4 -19 -1 -8 3 -5 6 6 6 11 1 17 -2 13 -5z m98 -114 c-3 -5 -12 -10
-18 -10 -7 0 -6 4 3 10 19 12 23 12 15 0z m-435 -10 c8 -5 11 -10 5 -10 -5 0
-17 5 -25 10 -8 5 -10 10 -5 10 6 0 17 -5 25 -10z"/>
</g>
</svg>
